<svg width="221" height="252" viewBox="0 0 221 252" fill="none" xmlns="http://www.w3.org/2000/svg">
<path d="M1.07275 168.758H4.13232C4.82633 168.758 5.41243 168.864 5.89062 169.075C6.37305 169.287 6.7391 169.6 6.98877 170.015C7.24268 170.425 7.36963 170.931 7.36963 171.532C7.36963 171.955 7.28288 172.342 7.10938 172.693C6.9401 173.04 6.69466 173.337 6.37305 173.582C6.05566 173.823 5.6748 174.003 5.23047 174.122L4.8877 174.255H2.01221L1.99951 173.258H4.17041C4.61051 173.258 4.97656 173.182 5.26855 173.03C5.56055 172.873 5.7806 172.664 5.92871 172.401C6.07682 172.139 6.15088 171.849 6.15088 171.532C6.15088 171.176 6.08105 170.865 5.94141 170.599C5.80176 170.332 5.58171 170.127 5.28125 169.983C4.98503 169.835 4.60205 169.761 4.13232 169.761H2.29785V178H1.07275V168.758ZM6.47461 178L4.22754 173.811L5.50342 173.804L7.78223 177.924V178H6.47461ZM13.1079 176.413V171.132H14.2886V178H13.165L13.1079 176.413ZM13.3301 174.966L13.8188 174.953C13.8188 175.41 13.7702 175.833 13.6729 176.223C13.5798 176.608 13.4274 176.942 13.2158 177.226C13.0042 177.509 12.7271 177.731 12.3843 177.892C12.0415 178.049 11.6247 178.127 11.1338 178.127C10.7995 178.127 10.4927 178.078 10.2134 177.981C9.93831 177.884 9.70133 177.733 9.50244 177.53C9.30355 177.327 9.14909 177.063 9.03906 176.737C8.93327 176.411 8.88037 176.02 8.88037 175.562V171.132H10.0547V175.575C10.0547 175.884 10.0885 176.14 10.1562 176.343C10.2282 176.542 10.3234 176.701 10.4419 176.819C10.5646 176.934 10.7 177.014 10.8481 177.061C11.0005 177.107 11.1571 177.13 11.3179 177.13C11.8172 177.13 12.2129 177.035 12.5049 176.845C12.7969 176.65 13.0063 176.39 13.1333 176.064C13.2645 175.734 13.3301 175.368 13.3301 174.966ZM17.2529 172.598V178H16.0786V171.132H17.1895L17.2529 172.598ZM16.9736 174.306L16.4849 174.287C16.4891 173.817 16.5589 173.383 16.6943 172.985C16.8298 172.583 17.0202 172.234 17.2656 171.938C17.5111 171.642 17.8031 171.413 18.1416 171.252C18.4844 171.087 18.8631 171.005 19.2778 171.005C19.6164 171.005 19.9211 171.051 20.1919 171.145C20.4627 171.233 20.6934 171.377 20.8838 171.576C21.0785 171.775 21.2266 172.033 21.3281 172.351C21.4297 172.664 21.4805 173.047 21.4805 173.5V178H20.2998V173.487C20.2998 173.127 20.2469 172.839 20.1411 172.624C20.0353 172.403 19.8809 172.245 19.6777 172.147C19.4746 172.046 19.2249 171.995 18.9287 171.995C18.6367 171.995 18.3701 172.056 18.1289 172.179C17.8919 172.302 17.6867 172.471 17.5132 172.687C17.3439 172.903 17.2106 173.15 17.1133 173.43C17.0202 173.705 16.9736 173.997 16.9736 174.306ZM30.0879 169.577L27.0283 178H25.7778L29.3008 168.758H30.1069L30.0879 169.577ZM32.6523 178L29.5864 169.577L29.5674 168.758H30.3735L33.9092 178H32.6523ZM32.4937 174.579V175.582H27.3013V174.579H32.4937ZM39.2983 176.667V168.25H40.479V178H39.3999L39.2983 176.667ZM34.6772 174.642V174.509C34.6772 173.984 34.7407 173.508 34.8677 173.081C34.9989 172.649 35.1829 172.279 35.4199 171.97C35.6611 171.661 35.9468 171.424 36.2769 171.259C36.6112 171.09 36.9836 171.005 37.394 171.005C37.8257 171.005 38.2023 171.081 38.5239 171.233C38.8498 171.382 39.1248 171.599 39.3491 171.887C39.5776 172.171 39.7575 172.514 39.8887 172.916C40.0199 173.318 40.1108 173.772 40.1616 174.28V174.864C40.1151 175.368 40.0241 175.821 39.8887 176.223C39.7575 176.625 39.5776 176.967 39.3491 177.251C39.1248 177.535 38.8498 177.752 38.5239 177.905C38.1981 178.053 37.8172 178.127 37.3813 178.127C36.9793 178.127 36.6112 178.04 36.2769 177.867C35.9468 177.693 35.6611 177.45 35.4199 177.137C35.1829 176.824 34.9989 176.455 34.8677 176.032C34.7407 175.605 34.6772 175.141 34.6772 174.642ZM35.8579 174.509V174.642C35.8579 174.985 35.8918 175.306 35.9595 175.607C36.0314 175.907 36.1414 176.172 36.2896 176.4C36.4377 176.629 36.626 176.809 36.8545 176.94C37.083 177.067 37.356 177.13 37.6733 177.13C38.0627 177.13 38.3822 177.048 38.6318 176.883C38.8857 176.718 39.0889 176.5 39.2412 176.229C39.3936 175.958 39.512 175.664 39.5967 175.347V173.817C39.5459 173.584 39.4718 173.36 39.3745 173.144C39.2814 172.924 39.1587 172.729 39.0063 172.56C38.8582 172.387 38.6742 172.249 38.4541 172.147C38.2383 172.046 37.9823 171.995 37.686 171.995C37.3644 171.995 37.0872 172.063 36.8545 172.198C36.626 172.329 36.4377 172.511 36.2896 172.744C36.1414 172.973 36.0314 173.239 35.9595 173.544C35.8918 173.844 35.8579 174.166 35.8579 174.509ZM44.3955 176.94L46.2744 171.132H47.4741L45.0049 178H44.2178L44.3955 176.94ZM42.8276 171.132L44.7637 176.972L44.897 178H44.1099L41.6216 171.132H42.8276ZM49.8799 171.132V178H48.6992V171.132H49.8799ZM48.6104 169.31C48.6104 169.12 48.6675 168.959 48.7817 168.828C48.9002 168.696 49.0737 168.631 49.3022 168.631C49.5265 168.631 49.6979 168.696 49.8164 168.828C49.9391 168.959 50.0005 169.12 50.0005 169.31C50.0005 169.492 49.9391 169.649 49.8164 169.78C49.6979 169.907 49.5265 169.97 49.3022 169.97C49.0737 169.97 48.9002 169.907 48.7817 169.78C48.6675 169.649 48.6104 169.492 48.6104 169.31ZM55.7642 176.178C55.7642 176.009 55.7261 175.852 55.6499 175.708C55.578 175.56 55.4277 175.427 55.1992 175.309C54.9749 175.186 54.6364 175.08 54.1836 174.991C53.8027 174.911 53.4578 174.816 53.1489 174.706C52.8442 174.596 52.584 174.462 52.3682 174.306C52.1566 174.149 51.9937 173.965 51.8794 173.753C51.7651 173.542 51.708 173.294 51.708 173.011C51.708 172.74 51.7673 172.484 51.8857 172.243C52.0085 172.001 52.1799 171.788 52.3999 171.602C52.6242 171.415 52.8929 171.269 53.2061 171.164C53.5192 171.058 53.8683 171.005 54.2534 171.005C54.8035 171.005 55.2733 171.102 55.6626 171.297C56.0519 171.492 56.3503 171.752 56.5576 172.078C56.765 172.399 56.8687 172.757 56.8687 173.15H55.6943C55.6943 172.96 55.6372 172.776 55.5229 172.598C55.4129 172.416 55.25 172.266 55.0342 172.147C54.8226 172.029 54.5623 171.97 54.2534 171.97C53.9276 171.97 53.6631 172.021 53.46 172.122C53.2611 172.219 53.1151 172.344 53.022 172.497C52.9331 172.649 52.8887 172.81 52.8887 172.979C52.8887 173.106 52.9098 173.22 52.9521 173.322C52.9987 173.419 53.0791 173.51 53.1934 173.595C53.3076 173.675 53.4684 173.751 53.6758 173.823C53.8831 173.895 54.1476 173.967 54.4692 174.039C55.0321 174.166 55.4954 174.318 55.8594 174.496C56.2233 174.674 56.4941 174.892 56.6719 175.15C56.8496 175.408 56.9385 175.721 56.9385 176.089C56.9385 176.39 56.875 176.665 56.748 176.915C56.6253 177.164 56.4455 177.38 56.2085 177.562C55.9757 177.74 55.6965 177.879 55.3706 177.981C55.049 178.078 54.6872 178.127 54.2852 178.127C53.68 178.127 53.168 178.019 52.749 177.803C52.3301 177.587 52.0127 177.308 51.7969 176.965C51.5811 176.623 51.4731 176.261 51.4731 175.88H52.6538C52.6707 176.201 52.7638 176.458 52.9331 176.648C53.1024 176.834 53.3097 176.967 53.5552 177.048C53.8006 177.124 54.0439 177.162 54.2852 177.162C54.6068 177.162 54.8755 177.12 55.0913 177.035C55.3114 176.951 55.4785 176.834 55.5928 176.686C55.707 176.538 55.7642 176.369 55.7642 176.178ZM58.1699 174.642V174.496C58.1699 174.001 58.2419 173.542 58.3857 173.119C58.5296 172.691 58.737 172.321 59.0078 172.008C59.2786 171.69 59.6066 171.445 59.9917 171.271C60.3768 171.094 60.8084 171.005 61.2866 171.005C61.769 171.005 62.2028 171.094 62.5879 171.271C62.9772 171.445 63.3073 171.69 63.5781 172.008C63.8532 172.321 64.0627 172.691 64.2065 173.119C64.3504 173.542 64.4224 174.001 64.4224 174.496V174.642C64.4224 175.137 64.3504 175.596 64.2065 176.02C64.0627 176.443 63.8532 176.813 63.5781 177.13C63.3073 177.444 62.9793 177.689 62.5942 177.867C62.2134 178.04 61.7817 178.127 61.2993 178.127C60.8169 178.127 60.3831 178.04 59.998 177.867C59.613 177.689 59.2829 177.444 59.0078 177.13C58.737 176.813 58.5296 176.443 58.3857 176.02C58.2419 175.596 58.1699 175.137 58.1699 174.642ZM59.3442 174.496V174.642C59.3442 174.985 59.3844 175.309 59.4648 175.613C59.5452 175.914 59.6659 176.18 59.8267 176.413C59.9917 176.646 60.1969 176.83 60.4424 176.965C60.6878 177.097 60.9735 177.162 61.2993 177.162C61.6209 177.162 61.9023 177.097 62.1436 176.965C62.389 176.83 62.5921 176.646 62.7529 176.413C62.9137 176.18 63.0343 175.914 63.1147 175.613C63.1994 175.309 63.2417 174.985 63.2417 174.642V174.496C63.2417 174.158 63.1994 173.838 63.1147 173.538C63.0343 173.233 62.9116 172.964 62.7466 172.731C62.5858 172.494 62.3826 172.308 62.1372 172.173C61.896 172.037 61.6125 171.97 61.2866 171.97C60.965 171.97 60.6815 172.037 60.436 172.173C60.1948 172.308 59.9917 172.494 59.8267 172.731C59.6659 172.964 59.5452 173.233 59.4648 173.538C59.3844 173.838 59.3442 174.158 59.3442 174.496ZM67.0693 172.211V178H65.895V171.132H67.0376L67.0693 172.211ZM69.2148 171.094L69.2085 172.186C69.1112 172.164 69.0181 172.152 68.9292 172.147C68.8446 172.139 68.7472 172.135 68.6372 172.135C68.3664 172.135 68.1273 172.177 67.9199 172.262C67.7126 172.346 67.5369 172.465 67.3931 172.617C67.2492 172.77 67.1349 172.951 67.0503 173.163C66.9699 173.37 66.917 173.599 66.8916 173.849L66.5615 174.039C66.5615 173.624 66.6017 173.235 66.6821 172.871C66.7668 172.507 66.8958 172.186 67.0693 171.906C67.2428 171.623 67.4629 171.403 67.7295 171.246C68.0003 171.085 68.3219 171.005 68.6943 171.005C68.779 171.005 68.8763 171.015 68.9863 171.037C69.0964 171.054 69.1725 171.073 69.2148 171.094ZM74.2993 176.178C74.2993 176.009 74.2612 175.852 74.1851 175.708C74.1131 175.56 73.9629 175.427 73.7344 175.309C73.5101 175.186 73.1715 175.08 72.7188 174.991C72.3379 174.911 71.993 174.816 71.6841 174.706C71.3794 174.596 71.1191 174.462 70.9033 174.306C70.6917 174.149 70.5288 173.965 70.4146 173.753C70.3003 173.542 70.2432 173.294 70.2432 173.011C70.2432 172.74 70.3024 172.484 70.4209 172.243C70.5436 172.001 70.715 171.788 70.9351 171.602C71.1593 171.415 71.4281 171.269 71.7412 171.164C72.0544 171.058 72.4035 171.005 72.7886 171.005C73.3387 171.005 73.8084 171.102 74.1978 171.297C74.5871 171.492 74.8854 171.752 75.0928 172.078C75.3001 172.399 75.4038 172.757 75.4038 173.15H74.2295C74.2295 172.96 74.1724 172.776 74.0581 172.598C73.9481 172.416 73.7852 172.266 73.5693 172.147C73.3577 172.029 73.0975 171.97 72.7886 171.97C72.4627 171.97 72.1982 172.021 71.9951 172.122C71.7962 172.219 71.6502 172.344 71.5571 172.497C71.4683 172.649 71.4238 172.81 71.4238 172.979C71.4238 173.106 71.445 173.22 71.4873 173.322C71.5339 173.419 71.6143 173.51 71.7285 173.595C71.8428 173.675 72.0036 173.751 72.2109 173.823C72.4183 173.895 72.6828 173.967 73.0044 174.039C73.5672 174.166 74.0306 174.318 74.3945 174.496C74.7585 174.674 75.0293 174.892 75.207 175.15C75.3848 175.408 75.4736 175.721 75.4736 176.089C75.4736 176.39 75.4102 176.665 75.2832 176.915C75.1605 177.164 74.9806 177.38 74.7437 177.562C74.5109 177.74 74.2316 177.879 73.9058 177.981C73.5841 178.078 73.2223 178.127 72.8203 178.127C72.2152 178.127 71.7031 178.019 71.2842 177.803C70.8652 177.587 70.5479 177.308 70.332 176.965C70.1162 176.623 70.0083 176.261 70.0083 175.88H71.189C71.2059 176.201 71.299 176.458 71.4683 176.648C71.6375 176.834 71.8449 176.967 72.0903 177.048C72.3358 177.124 72.5791 177.162 72.8203 177.162C73.1419 177.162 73.4106 177.12 73.6265 177.035C73.8465 176.951 74.0137 176.834 74.1279 176.686C74.2422 176.538 74.2993 176.369 74.2993 176.178Z"/>
<path d="M162.3 60.3C198.163 80.55 213.269 106.2 209.414 144" fill="none" stroke="currentColor" stroke-width="1.8"/>
<path d="M175.691 210.484C162.985 226.202 95.2225 245.056 44.6893 190.608" fill="none" stroke="currentColor" stroke-width="1.8"/>
<path d="M40.8001 111.6C43.2262 101.979 48.2756 77.9503 86.5 60" fill="none" stroke="currentColor" stroke-width="1.8"/>
<path d="M89.9959 57.6348L87.5387 62.5061L84.5486 57.9425L89.9959 57.6348Z" fill="currentColor"/>
<path d="M212.514 143.335L209.104 147.593L207.121 142.511L212.514 143.335Z" fill="currentColor"/>
<path d="M48.4078 190.821L43.8898 193.88L43.5 188.438L48.4078 190.821Z" fill="currentColor"/>
<path d="M104.494 69.5767L101.435 78H100.184L103.707 68.7578H104.513L104.494 69.5767ZM107.059 78L103.993 69.5767L103.974 68.7578H104.78L108.315 78H107.059ZM106.9 74.5786V75.5815H101.708V74.5786H106.9ZM110.55 72.5981V78H109.375V71.1318H110.486L110.55 72.5981ZM110.271 74.3057L109.782 74.2866C109.786 73.8169 109.856 73.3831 109.991 72.9854C110.127 72.5833 110.317 72.2342 110.562 71.938C110.808 71.6418 111.1 71.4132 111.438 71.2524C111.781 71.0874 112.16 71.0049 112.575 71.0049C112.913 71.0049 113.218 71.0514 113.489 71.1445C113.76 71.2334 113.99 71.3773 114.181 71.5762C114.375 71.7751 114.523 72.0332 114.625 72.3506C114.727 72.6637 114.777 73.0467 114.777 73.4995V78H113.597V73.4868C113.597 73.1271 113.544 72.8394 113.438 72.6235C113.332 72.4035 113.178 72.2448 112.975 72.1475C112.771 72.0459 112.522 71.9951 112.226 71.9951C111.934 71.9951 111.667 72.0565 111.426 72.1792C111.189 72.3019 110.984 72.4712 110.81 72.687C110.641 72.9028 110.507 73.1504 110.41 73.4297C110.317 73.7048 110.271 73.9967 110.271 74.3057ZM120.611 76.8257V73.29C120.611 73.0192 120.556 72.7843 120.446 72.5854C120.34 72.3823 120.179 72.2257 119.963 72.1157C119.748 72.0057 119.481 71.9507 119.164 71.9507C118.867 71.9507 118.607 72.0015 118.383 72.103C118.163 72.2046 117.989 72.3379 117.862 72.5029C117.74 72.668 117.678 72.8457 117.678 73.0361H116.504C116.504 72.7907 116.567 72.5474 116.694 72.3062C116.821 72.0649 117.003 71.847 117.24 71.6523C117.481 71.4535 117.769 71.2969 118.104 71.1826C118.442 71.0641 118.819 71.0049 119.233 71.0049C119.733 71.0049 120.173 71.0895 120.554 71.2588C120.939 71.4281 121.239 71.6841 121.455 72.0269C121.675 72.3654 121.785 72.7907 121.785 73.3027V76.502C121.785 76.7305 121.804 76.9738 121.842 77.2319C121.885 77.4901 121.946 77.7122 122.026 77.8984V78H120.801C120.742 77.8646 120.695 77.6847 120.662 77.4604C120.628 77.2319 120.611 77.0203 120.611 76.8257ZM120.814 73.8359L120.827 74.6611H119.64C119.305 74.6611 119.007 74.6886 118.745 74.7437C118.482 74.7944 118.262 74.8727 118.084 74.9785C117.907 75.0843 117.771 75.2176 117.678 75.3784C117.585 75.535 117.539 75.7191 117.539 75.9307C117.539 76.1465 117.587 76.3433 117.685 76.521C117.782 76.6987 117.928 76.8405 118.123 76.9463C118.321 77.0479 118.565 77.0986 118.853 77.0986C119.212 77.0986 119.53 77.0225 119.805 76.8701C120.08 76.7178 120.298 76.5316 120.458 76.3115C120.624 76.0915 120.712 75.8778 120.725 75.6704L121.227 76.2354C121.197 76.4131 121.117 76.6099 120.985 76.8257C120.854 77.0415 120.679 77.2489 120.458 77.4478C120.243 77.6424 119.985 77.8053 119.684 77.9365C119.388 78.0635 119.054 78.127 118.681 78.127C118.216 78.127 117.807 78.036 117.456 77.854C117.109 77.672 116.838 77.4287 116.644 77.124C116.453 76.8151 116.358 76.4702 116.358 76.0894C116.358 75.7212 116.43 75.3975 116.574 75.1182C116.718 74.8346 116.925 74.5998 117.196 74.4136C117.467 74.2231 117.792 74.0793 118.173 73.9819C118.554 73.8846 118.979 73.8359 119.449 73.8359H120.814ZM124.908 68.25V78H123.728V68.25H124.908ZM128.723 77.2891L130.634 71.1318H131.891L129.136 79.0601C129.072 79.2293 128.988 79.4113 128.882 79.606C128.78 79.8049 128.649 79.9932 128.488 80.1709C128.327 80.3486 128.133 80.4925 127.904 80.6025C127.68 80.7168 127.411 80.7739 127.098 80.7739C127.005 80.7739 126.887 80.7612 126.743 80.7358C126.599 80.7104 126.497 80.6893 126.438 80.6724L126.432 79.7202C126.465 79.7244 126.518 79.7287 126.59 79.7329C126.667 79.7414 126.719 79.7456 126.749 79.7456C127.016 79.7456 127.242 79.7096 127.428 79.6377C127.614 79.57 127.771 79.4536 127.898 79.2886C128.029 79.1278 128.141 78.9056 128.234 78.6221L128.723 77.2891ZM127.32 71.1318L129.104 76.4639L129.409 77.7017L128.564 78.1333L126.038 71.1318H127.32ZM138.067 77.0352V78H133.071V77.0352H138.067ZM137.883 71.9634L133.338 78H132.621V77.1367L137.134 71.1318H137.883V71.9634ZM137.362 71.1318V72.103H132.671V71.1318H137.362ZM142.148 78.127C141.67 78.127 141.236 78.0465 140.847 77.8857C140.462 77.7207 140.13 77.4901 139.851 77.1938C139.576 76.8976 139.364 76.5464 139.216 76.1401C139.068 75.7339 138.994 75.2896 138.994 74.8071V74.5405C138.994 73.9819 139.076 73.4847 139.241 73.0488C139.406 72.6087 139.631 72.2363 139.914 71.9316C140.198 71.627 140.519 71.3963 140.879 71.2397C141.239 71.0832 141.611 71.0049 141.996 71.0049C142.487 71.0049 142.91 71.0895 143.266 71.2588C143.625 71.4281 143.919 71.665 144.148 71.9697C144.376 72.2702 144.546 72.6257 144.656 73.0361C144.766 73.4424 144.821 73.8867 144.821 74.3691V74.896H139.692V73.9375H143.646V73.8486C143.63 73.5439 143.566 73.2477 143.456 72.96C143.35 72.6722 143.181 72.4352 142.948 72.249C142.715 72.0628 142.398 71.9697 141.996 71.9697C141.729 71.9697 141.484 72.0269 141.26 72.1411C141.035 72.2511 140.843 72.4162 140.682 72.6362C140.521 72.8563 140.396 73.125 140.308 73.4424C140.219 73.7598 140.174 74.1258 140.174 74.5405V74.8071C140.174 75.133 140.219 75.4398 140.308 75.7275C140.401 76.0111 140.534 76.2607 140.708 76.4766C140.885 76.6924 141.099 76.8617 141.349 76.9844C141.603 77.1071 141.89 77.1685 142.212 77.1685C142.627 77.1685 142.978 77.0838 143.266 76.9146C143.553 76.7453 143.805 76.5189 144.021 76.2354L144.732 76.8003C144.584 77.0246 144.396 77.2383 144.167 77.4414C143.938 77.6445 143.657 77.8096 143.323 77.9365C142.993 78.0635 142.601 78.127 142.148 78.127Z"/>
<mask id="mask0_11105_75989" style="mask-type:alpha" maskUnits="userSpaceOnUse" x="95" y="11" width="55" height="56">
<rect x="95.113" y="11.7" width="54.237" height="54.9" fill="currentColor"/>
</mask>
<g mask="url(#mask0_11105_75989)">
<path d="M102.684 56.6494H114.661V35.3757H102.684V56.6494ZM116.243 56.6494H128.221V21.6507H116.243V56.6494ZM129.802 56.6494H141.78V39.9507H129.802V56.6494ZM101.102 58.2507V33.7744H114.661V20.0494H129.802V38.3494H143.362V58.2507H101.102Z"/>
</g>
<mask id="mask1_11105_75989" style="mask-type:alpha" maskUnits="userSpaceOnUse" x="88" y="0" width="82" height="83">
<rect x="88" width="81.8" height="82.8" fill="currentColor"/>
</mask>
<g mask="url(#mask1_11105_75989)">
<path d="M101.665 66.6C100.562 66.6 99.6394 66.2301 98.8969 65.4904C98.1525 64.7526 97.7803 63.8355 97.7803 62.7393C97.7803 61.643 98.1525 60.7259 98.8969 59.9881C99.6394 59.2484 100.562 58.8785 101.665 58.8785C102.049 58.8785 102.409 58.9147 102.745 58.9872C103.08 59.0577 103.392 59.2122 103.68 59.4505L118.501 44.7224C118.261 44.4364 118.106 44.1266 118.035 43.793C117.962 43.4593 117.925 43.1019 117.925 42.7206C117.925 41.6243 118.298 40.7063 119.042 39.9666C119.784 39.2287 120.707 38.8598 121.81 38.8598C122.914 38.8598 123.837 39.2287 124.582 39.9666C125.324 40.7063 125.696 41.6243 125.696 42.7206C125.696 43.0065 125.552 43.6262 125.264 44.5794L134.329 53.5879C134.617 53.4449 134.905 53.3381 135.192 53.2675C135.48 53.1951 135.816 53.1589 136.2 53.1589C136.583 53.1589 136.932 53.1951 137.244 53.2675C137.555 53.3381 137.831 53.4925 138.07 53.7308L150.157 41.7196C149.918 41.4813 149.762 41.2068 149.691 40.896C149.618 40.5871 149.582 40.2421 149.582 39.8607C149.582 38.7645 149.954 37.8465 150.698 37.1067C151.441 36.3689 152.364 36 153.467 36C154.57 36 155.494 36.3689 156.238 37.1067C156.981 37.8465 157.352 38.7645 157.352 39.8607C157.352 40.957 156.981 41.8741 156.238 42.6119C155.494 43.3516 154.57 43.7215 153.467 43.7215C153.083 43.7215 152.736 43.6853 152.425 43.6128C152.112 43.5423 151.836 43.3878 151.596 43.1495L139.509 55.1607C139.749 55.3991 139.904 55.6727 139.975 55.9815C140.048 56.2923 140.085 56.6383 140.085 57.0196C140.085 58.1159 139.714 59.0329 138.971 59.7708C138.227 60.5105 137.303 60.8804 136.2 60.8804C135.097 60.8804 134.174 60.5105 133.431 59.7708C132.687 59.0329 132.315 58.1159 132.315 57.0196C132.315 56.6383 132.351 56.2808 132.424 55.9472C132.495 55.6136 132.65 55.3037 132.89 55.0178L123.825 46.0093C123.537 46.2477 123.225 46.4021 122.89 46.4726C122.554 46.5451 122.194 46.5813 121.81 46.5813C121.523 46.5813 120.899 46.4383 119.94 46.1523L105.119 60.8804C105.263 61.1664 105.37 61.4523 105.441 61.7383C105.514 62.0243 105.55 62.3579 105.55 62.7393C105.55 63.8355 105.179 64.7526 104.437 65.4904C103.692 66.2301 102.769 66.6 101.665 66.6Z" fill="currentColor"/>
</g>
<mask id="mask2_11105_75989" style="mask-type:alpha" maskUnits="userSpaceOnUse" x="3" y="112" width="48" height="49">
<rect x="3" y="112.5" width="47.7" height="47.7" fill="currentColor"/>
</mask>
<g mask="url(#mask2_11105_75989)">
<path d="M26.8499 132.375H35.7936V130.984H26.8499V132.375ZM26.8499 141.716H35.7936V140.325H26.8499V141.716ZM20.8874 133.667C21.4505 133.667 21.9229 133.476 22.3045 133.094C22.6848 132.714 22.8749 132.243 22.8749 131.679C22.8749 131.116 22.6848 130.645 22.3045 130.264C21.9229 129.883 21.4505 129.692 20.8874 129.692C20.3243 129.692 19.8526 129.883 19.4723 130.264C19.0907 130.645 18.8999 131.116 18.8999 131.679C18.8999 132.243 19.0907 132.714 19.4723 133.094C19.8526 133.476 20.3243 133.667 20.8874 133.667ZM20.8874 143.008C21.4505 143.008 21.9229 142.817 22.3045 142.436C22.6848 142.055 22.8749 141.584 22.8749 141.021C22.8749 140.458 22.6848 139.985 22.3045 139.604C21.9229 139.223 21.4505 139.033 20.8874 139.033C20.3243 139.033 19.8526 139.223 19.4723 139.604C19.0907 139.985 18.8999 140.458 18.8999 141.021C18.8999 141.584 19.0907 142.055 19.4723 142.436C19.8526 142.817 20.3243 143.008 20.8874 143.008ZM14.5274 151.654C13.6661 151.654 12.954 151.372 12.3908 150.809C11.8277 150.246 11.5461 149.534 11.5461 148.673V124.028C11.5461 123.166 11.8277 122.454 12.3908 121.891C12.954 121.328 13.6661 121.046 14.5274 121.046H39.1724C40.0336 121.046 40.7458 121.328 41.309 121.891C41.8721 122.454 42.1536 123.166 42.1536 124.028V148.673C42.1536 149.534 41.8721 150.246 41.309 150.809C40.7458 151.372 40.0336 151.654 39.1724 151.654H14.5274ZM14.5274 150.263H39.1724C39.5699 150.263 39.9343 150.097 40.2655 149.766C40.5968 149.434 40.7624 149.07 40.7624 148.673V124.028C40.7624 123.63 40.5968 123.266 40.2655 122.934C39.9343 122.603 39.5699 122.438 39.1724 122.438H14.5274C14.1299 122.438 13.7655 122.603 13.4343 122.934C13.103 123.266 12.9374 123.63 12.9374 124.028V148.673C12.9374 149.07 13.103 149.434 13.4343 149.766C13.7655 150.097 14.1299 150.263 14.5274 150.263Z"/>
</g>
<mask id="mask3_11105_75989" style="mask-type:alpha" maskUnits="userSpaceOnUse" x="26" y="128" width="41" height="42">
<rect x="26.3999" y="128.7" width="40.5" height="40.5" fill="currentColor"/>
</mask>
<g mask="url(#mask3_11105_75989)">
<path d="M43.5281 154.519L52.2188 148.95L43.5281 143.381V154.519ZM46.65 163.631C44.625 163.631 42.7198 163.244 40.9344 162.47C39.1479 161.697 37.5938 160.65 36.2719 159.328C34.95 158.006 33.9021 156.452 33.1281 154.666C32.3552 152.88 31.9688 150.975 31.9688 148.95C31.9688 146.925 32.3552 145.019 33.1281 143.233C33.9021 141.447 34.95 139.894 36.2719 138.572C37.5938 137.25 39.1479 136.202 40.9344 135.428C42.7198 134.655 44.625 134.269 46.65 134.269C48.675 134.269 50.5807 134.655 52.3672 135.428C54.1526 136.202 55.7062 137.25 57.0281 138.572C58.35 139.894 59.3979 141.447 60.1719 143.233C60.9448 145.019 61.3313 146.925 61.3313 148.95C61.3313 150.975 60.9448 152.88 60.1719 154.666C59.3979 156.452 58.35 158.006 57.0281 159.328C55.7062 160.65 54.1526 161.697 52.3672 162.47C50.5807 163.244 48.675 163.631 46.65 163.631Z" fill="currentColor"/>
</g>
<path d="M159.903 196.398V199.781C159.789 199.951 159.607 200.141 159.357 200.353C159.107 200.56 158.762 200.742 158.322 200.898C157.886 201.051 157.324 201.127 156.634 201.127C156.071 201.127 155.553 201.03 155.079 200.835C154.609 200.636 154.201 200.348 153.854 199.972C153.511 199.591 153.244 199.13 153.054 198.588C152.868 198.042 152.774 197.424 152.774 196.734V196.017C152.774 195.327 152.855 194.712 153.016 194.17C153.181 193.628 153.422 193.169 153.739 192.792C154.057 192.412 154.446 192.124 154.907 191.929C155.368 191.73 155.897 191.631 156.494 191.631C157.201 191.631 157.791 191.754 158.265 191.999C158.743 192.24 159.116 192.575 159.382 193.002C159.653 193.429 159.827 193.916 159.903 194.462H158.678C158.623 194.128 158.513 193.823 158.348 193.548C158.187 193.273 157.956 193.053 157.656 192.888C157.355 192.718 156.968 192.634 156.494 192.634C156.067 192.634 155.696 192.712 155.383 192.869C155.07 193.025 154.812 193.25 154.609 193.542C154.406 193.833 154.253 194.187 154.152 194.602C154.055 195.016 154.006 195.484 154.006 196.004V196.734C154.006 197.268 154.067 197.744 154.19 198.163C154.317 198.582 154.497 198.939 154.729 199.235C154.962 199.527 155.239 199.75 155.561 199.902C155.887 200.054 156.247 200.13 156.64 200.13C157.076 200.13 157.429 200.094 157.7 200.022C157.971 199.946 158.183 199.857 158.335 199.756C158.487 199.65 158.604 199.551 158.684 199.458V197.388H156.545V196.398H159.903ZM164.606 201.127C164.128 201.127 163.694 201.047 163.305 200.886C162.92 200.721 162.588 200.49 162.309 200.194C162.034 199.898 161.822 199.546 161.674 199.14C161.526 198.734 161.452 198.29 161.452 197.807V197.541C161.452 196.982 161.534 196.485 161.699 196.049C161.864 195.609 162.089 195.236 162.372 194.932C162.656 194.627 162.977 194.396 163.337 194.24C163.697 194.083 164.069 194.005 164.454 194.005C164.945 194.005 165.368 194.09 165.724 194.259C166.083 194.428 166.377 194.665 166.606 194.97C166.834 195.27 167.004 195.626 167.114 196.036C167.224 196.442 167.279 196.887 167.279 197.369V197.896H162.15V196.938H166.104V196.849C166.088 196.544 166.024 196.248 165.914 195.96C165.808 195.672 165.639 195.435 165.406 195.249C165.174 195.063 164.856 194.97 164.454 194.97C164.188 194.97 163.942 195.027 163.718 195.141C163.493 195.251 163.301 195.416 163.14 195.636C162.979 195.856 162.854 196.125 162.766 196.442C162.677 196.76 162.632 197.126 162.632 197.541V197.807C162.632 198.133 162.677 198.44 162.766 198.728C162.859 199.011 162.992 199.261 163.166 199.477C163.343 199.692 163.557 199.862 163.807 199.984C164.061 200.107 164.348 200.168 164.67 200.168C165.085 200.168 165.436 200.084 165.724 199.915C166.011 199.745 166.263 199.519 166.479 199.235L167.19 199.8C167.042 200.025 166.854 200.238 166.625 200.441C166.396 200.645 166.115 200.81 165.781 200.937C165.451 201.063 165.059 201.127 164.606 201.127ZM171.525 194.132V195.033H167.812V194.132H171.525ZM169.069 192.462H170.243V199.299C170.243 199.532 170.279 199.707 170.351 199.826C170.423 199.944 170.516 200.022 170.63 200.061C170.745 200.099 170.867 200.118 170.999 200.118C171.096 200.118 171.197 200.109 171.303 200.092C171.413 200.071 171.496 200.054 171.551 200.042L171.557 201C171.464 201.03 171.341 201.057 171.189 201.083C171.041 201.112 170.861 201.127 170.649 201.127C170.362 201.127 170.097 201.07 169.856 200.956C169.615 200.841 169.422 200.651 169.278 200.384C169.139 200.113 169.069 199.75 169.069 199.292V192.462ZM177.403 194.132V201H176.223V194.132H177.403ZM176.134 192.31C176.134 192.12 176.191 191.959 176.305 191.828C176.424 191.696 176.597 191.631 176.826 191.631C177.05 191.631 177.221 191.696 177.34 191.828C177.463 191.959 177.524 192.12 177.524 192.31C177.524 192.492 177.463 192.649 177.34 192.78C177.221 192.907 177.05 192.97 176.826 192.97C176.597 192.97 176.424 192.907 176.305 192.78C176.191 192.649 176.134 192.492 176.134 192.31ZM180.463 195.598V201H179.289V194.132H180.399L180.463 195.598ZM180.184 197.306L179.695 197.287C179.699 196.817 179.769 196.383 179.904 195.985C180.04 195.583 180.23 195.234 180.476 194.938C180.721 194.642 181.013 194.413 181.352 194.252C181.694 194.087 182.073 194.005 182.488 194.005C182.826 194.005 183.131 194.051 183.402 194.145C183.673 194.233 183.903 194.377 184.094 194.576C184.288 194.775 184.437 195.033 184.538 195.351C184.64 195.664 184.69 196.047 184.69 196.5V201H183.51V196.487C183.51 196.127 183.457 195.839 183.351 195.624C183.245 195.403 183.091 195.245 182.888 195.147C182.685 195.046 182.435 194.995 182.139 194.995C181.847 194.995 181.58 195.056 181.339 195.179C181.102 195.302 180.897 195.471 180.723 195.687C180.554 195.903 180.421 196.15 180.323 196.43C180.23 196.705 180.184 196.997 180.184 197.306ZM190.473 199.178C190.473 199.009 190.435 198.852 190.359 198.708C190.287 198.56 190.137 198.427 189.908 198.309C189.684 198.186 189.345 198.08 188.893 197.991C188.512 197.911 188.167 197.816 187.858 197.706C187.553 197.596 187.293 197.462 187.077 197.306C186.866 197.149 186.703 196.965 186.588 196.753C186.474 196.542 186.417 196.294 186.417 196.011C186.417 195.74 186.476 195.484 186.595 195.243C186.717 195.001 186.889 194.788 187.109 194.602C187.333 194.415 187.602 194.269 187.915 194.164C188.228 194.058 188.577 194.005 188.962 194.005C189.513 194.005 189.982 194.102 190.372 194.297C190.761 194.492 191.059 194.752 191.267 195.078C191.474 195.399 191.578 195.757 191.578 196.15H190.403C190.403 195.96 190.346 195.776 190.232 195.598C190.122 195.416 189.959 195.266 189.743 195.147C189.532 195.029 189.271 194.97 188.962 194.97C188.637 194.97 188.372 195.021 188.169 195.122C187.97 195.219 187.824 195.344 187.731 195.497C187.642 195.649 187.598 195.81 187.598 195.979C187.598 196.106 187.619 196.22 187.661 196.322C187.708 196.419 187.788 196.51 187.902 196.595C188.017 196.675 188.177 196.751 188.385 196.823C188.592 196.895 188.857 196.967 189.178 197.039C189.741 197.166 190.204 197.318 190.568 197.496C190.932 197.674 191.203 197.892 191.381 198.15C191.559 198.408 191.647 198.721 191.647 199.089C191.647 199.39 191.584 199.665 191.457 199.915C191.334 200.164 191.154 200.38 190.917 200.562C190.685 200.74 190.405 200.879 190.08 200.981C189.758 201.078 189.396 201.127 188.994 201.127C188.389 201.127 187.877 201.019 187.458 200.803C187.039 200.587 186.722 200.308 186.506 199.965C186.29 199.623 186.182 199.261 186.182 198.88H187.363C187.38 199.201 187.473 199.458 187.642 199.648C187.811 199.834 188.019 199.967 188.264 200.048C188.51 200.124 188.753 200.162 188.994 200.162C189.316 200.162 189.584 200.12 189.8 200.035C190.02 199.951 190.188 199.834 190.302 199.686C190.416 199.538 190.473 199.369 190.473 199.178ZM194.466 194.132V201H193.285V194.132H194.466ZM193.196 192.31C193.196 192.12 193.253 191.959 193.368 191.828C193.486 191.696 193.66 191.631 193.888 191.631C194.112 191.631 194.284 191.696 194.402 191.828C194.525 191.959 194.586 192.12 194.586 192.31C194.586 192.492 194.525 192.649 194.402 192.78C194.284 192.907 194.112 192.97 193.888 192.97C193.66 192.97 193.486 192.907 193.368 192.78C193.253 192.649 193.196 192.492 193.196 192.31ZM200.801 194.132H201.867V200.854C201.867 201.459 201.744 201.975 201.499 202.403C201.254 202.83 200.911 203.154 200.471 203.374C200.035 203.598 199.531 203.71 198.96 203.71C198.723 203.71 198.444 203.672 198.122 203.596C197.805 203.524 197.492 203.399 197.183 203.222C196.878 203.048 196.622 202.813 196.415 202.517L197.03 201.819C197.318 202.166 197.618 202.407 197.932 202.542C198.249 202.678 198.562 202.746 198.871 202.746C199.243 202.746 199.565 202.676 199.836 202.536C200.107 202.396 200.316 202.189 200.464 201.914C200.617 201.643 200.693 201.309 200.693 200.911V195.643L200.801 194.132ZM196.072 197.642V197.509C196.072 196.984 196.133 196.508 196.256 196.081C196.383 195.649 196.563 195.279 196.795 194.97C197.032 194.661 197.318 194.424 197.652 194.259C197.987 194.09 198.363 194.005 198.782 194.005C199.214 194.005 199.59 194.081 199.912 194.233C200.238 194.382 200.513 194.599 200.737 194.887C200.966 195.171 201.146 195.514 201.277 195.916C201.408 196.318 201.499 196.772 201.55 197.28V197.864C201.503 198.368 201.412 198.821 201.277 199.223C201.146 199.625 200.966 199.967 200.737 200.251C200.513 200.535 200.238 200.752 199.912 200.905C199.586 201.053 199.205 201.127 198.77 201.127C198.359 201.127 197.987 201.04 197.652 200.867C197.322 200.693 197.039 200.45 196.802 200.137C196.565 199.824 196.383 199.455 196.256 199.032C196.133 198.605 196.072 198.141 196.072 197.642ZM197.246 197.509V197.642C197.246 197.985 197.28 198.306 197.348 198.607C197.42 198.907 197.528 199.172 197.671 199.4C197.819 199.629 198.008 199.809 198.236 199.94C198.465 200.067 198.738 200.13 199.055 200.13C199.444 200.13 199.766 200.048 200.02 199.883C200.274 199.718 200.475 199.5 200.623 199.229C200.775 198.958 200.894 198.664 200.979 198.347V196.817C200.932 196.584 200.86 196.36 200.763 196.144C200.67 195.924 200.547 195.729 200.395 195.56C200.246 195.387 200.062 195.249 199.842 195.147C199.622 195.046 199.364 194.995 199.068 194.995C198.746 194.995 198.469 195.063 198.236 195.198C198.008 195.329 197.819 195.511 197.671 195.744C197.528 195.973 197.42 196.239 197.348 196.544C197.28 196.844 197.246 197.166 197.246 197.509ZM204.825 191.25V201H203.651V191.25H204.825ZM204.546 197.306L204.057 197.287C204.061 196.817 204.131 196.383 204.267 195.985C204.402 195.583 204.592 195.234 204.838 194.938C205.083 194.642 205.375 194.413 205.714 194.252C206.057 194.087 206.435 194.005 206.85 194.005C207.189 194.005 207.493 194.051 207.764 194.145C208.035 194.233 208.266 194.377 208.456 194.576C208.651 194.775 208.799 195.033 208.9 195.351C209.002 195.664 209.053 196.047 209.053 196.5V201H207.872V196.487C207.872 196.127 207.819 195.839 207.713 195.624C207.608 195.403 207.453 195.245 207.25 195.147C207.047 195.046 206.797 194.995 206.501 194.995C206.209 194.995 205.942 195.056 205.701 195.179C205.464 195.302 205.259 195.471 205.085 195.687C204.916 195.903 204.783 196.15 204.686 196.43C204.592 196.705 204.546 196.997 204.546 197.306ZM213.687 194.132V195.033H209.973V194.132H213.687ZM211.23 192.462H212.404V199.299C212.404 199.532 212.44 199.707 212.512 199.826C212.584 199.944 212.677 200.022 212.792 200.061C212.906 200.099 213.028 200.118 213.16 200.118C213.257 200.118 213.359 200.109 213.464 200.092C213.574 200.071 213.657 200.054 213.712 200.042L213.718 201C213.625 201.03 213.502 201.057 213.35 201.083C213.202 201.112 213.022 201.127 212.811 201.127C212.523 201.127 212.258 201.07 212.017 200.956C211.776 200.841 211.583 200.651 211.439 200.384C211.3 200.113 211.23 199.75 211.23 199.292V192.462ZM219.063 199.178C219.063 199.009 219.025 198.852 218.949 198.708C218.877 198.56 218.727 198.427 218.498 198.309C218.274 198.186 217.935 198.08 217.482 197.991C217.102 197.911 216.757 197.816 216.448 197.706C216.143 197.596 215.883 197.462 215.667 197.306C215.455 197.149 215.292 196.965 215.178 196.753C215.064 196.542 215.007 196.294 215.007 196.011C215.007 195.74 215.066 195.484 215.185 195.243C215.307 195.001 215.479 194.788 215.699 194.602C215.923 194.415 216.192 194.269 216.505 194.164C216.818 194.058 217.167 194.005 217.552 194.005C218.102 194.005 218.572 194.102 218.961 194.297C219.351 194.492 219.649 194.752 219.856 195.078C220.064 195.399 220.167 195.757 220.167 196.15H218.993C218.993 195.96 218.936 195.776 218.822 195.598C218.712 195.416 218.549 195.266 218.333 195.147C218.121 195.029 217.861 194.97 217.552 194.97C217.226 194.97 216.962 195.021 216.759 195.122C216.56 195.219 216.414 195.344 216.321 195.497C216.232 195.649 216.188 195.81 216.188 195.979C216.188 196.106 216.209 196.22 216.251 196.322C216.298 196.419 216.378 196.51 216.492 196.595C216.606 196.675 216.767 196.751 216.975 196.823C217.182 196.895 217.446 196.967 217.768 197.039C218.331 197.166 218.794 197.318 219.158 197.496C219.522 197.674 219.793 197.892 219.971 198.15C220.148 198.408 220.237 198.721 220.237 199.089C220.237 199.39 220.174 199.665 220.047 199.915C219.924 200.164 219.744 200.38 219.507 200.562C219.275 200.74 218.995 200.879 218.669 200.981C218.348 201.078 217.986 201.127 217.584 201.127C216.979 201.127 216.467 201.019 216.048 200.803C215.629 200.587 215.312 200.308 215.096 199.965C214.88 199.623 214.772 199.261 214.772 198.88H215.953C215.97 199.201 216.063 199.458 216.232 199.648C216.401 199.834 216.609 199.967 216.854 200.048C217.099 200.124 217.343 200.162 217.584 200.162C217.906 200.162 218.174 200.12 218.39 200.035C218.61 199.951 218.777 199.834 218.892 199.686C219.006 199.538 219.063 199.369 219.063 199.178Z"/>
<mask id="mask4_11105_75989" style="mask-type:alpha" maskUnits="userSpaceOnUse" x="162" y="157" width="35" height="37">
<rect x="162.3" y="157.5" width="34.37" height="36"/>
</mask>
<g mask="url(#mask4_11105_75989)">
<path d="M168.959 185.025V183.975H181.418V185.025H168.959ZM168.959 179.025V177.975H190.011V179.025H168.959ZM168.959 173.025V171.975H190.011V173.025H168.959ZM168.959 167.025V165.975H190.011V167.025H168.959Z"/>
</g>
<mask id="mask5_11105_75989" style="mask-type:alpha" maskUnits="userSpaceOnUse" x="177" y="144" width="39" height="38">
<rect x="177.6" y="144" width="37.8" height="37.8" fill="currentColor"/>
</mask>
<g mask="url(#mask5_11105_75989)">
<path d="M196.5 169.673C196.736 169.673 196.927 169.594 197.072 169.436C197.216 169.279 197.288 169.095 197.288 168.885C197.288 168.649 197.216 168.459 197.072 168.315C196.927 168.17 196.736 168.098 196.5 168.098C196.29 168.098 196.106 168.17 195.949 168.315C195.791 168.459 195.713 168.649 195.713 168.885C195.713 169.095 195.791 169.279 195.949 169.436C196.106 169.594 196.29 169.673 196.5 169.673ZM195.949 164.79H197.051V155.34H195.949V164.79ZM196.5 176.603C194.61 176.603 192.832 176.241 191.166 175.519C189.498 174.798 188.048 173.82 186.814 172.586C185.58 171.353 184.602 169.902 183.88 168.235C183.158 166.568 182.798 164.79 182.798 162.9C182.798 161.01 183.158 159.231 183.88 157.564C184.602 155.898 185.58 154.448 186.814 153.214C188.048 151.98 189.498 151.002 191.166 150.28C192.832 149.558 194.61 149.198 196.5 149.198C198.39 149.198 200.169 149.558 201.836 150.28C203.503 151.002 204.953 151.98 206.186 153.214C207.42 154.448 208.398 155.898 209.121 157.564C209.842 159.231 210.203 161.01 210.203 162.9C210.203 164.79 209.842 166.568 209.121 168.235C208.398 169.902 207.42 171.353 206.186 172.586C204.953 173.82 203.503 174.798 201.836 175.519C200.169 176.241 198.39 176.603 196.5 176.603Z" fill="currentColor"/>
</g>
</svg>
