<svg xmlns="http://www.w3.org/2000/svg" fill="none" viewBox="0 0 36 44">
  <path fill="#0E5FB5" d="M.67 37.17v-4.34H5V17.67c0-3 .9-5.66 2.7-8a12.5 12.5 0 0 1 7.05-4.57V3.58c0-.9.32-1.67.95-2.3.63-.63 1.4-.95 2.3-.95.9 0 1.67.32 2.3.95.63.63.95 1.4.95 2.3V5.1a12.5 12.5 0 0 1 7.04 4.58A12.64 12.64 0 0 1 31 17.67v15.16h4.33v4.34H.67ZM18 43.67c-1.2 0-2.21-.43-3.06-1.28a4.17 4.17 0 0 1-1.27-3.06h8.66c0 1.2-.42 2.22-1.27 3.06A4.18 4.18 0 0 1 18 43.67ZM9.33 32.83h17.34V17.67c0-2.39-.85-4.43-2.55-6.12A8.35 8.35 0 0 0 18 9c-2.38 0-4.42.85-6.12 2.55a8.35 8.35 0 0 0-2.55 6.12v15.16Z"/>
</svg>
