<svg xmlns="http://www.w3.org/2000/svg" viewBox="0 0 48 36" width="48" height="36" fill="none">
  <path fill="#774FAA" d="M28.33 13.45V9.77a19.03 19.03 0 0 1 10.35-1.3c.9.14 1.79.32 2.65.54v3.46a15.33 15.33 0 0 0-9.37-.45c-1.26.34-2.47.82-3.63 1.43Zm0 11.92v-3.69a19.03 19.03 0 0 1 10.35-1.3c.9.15 1.79.33 2.65.55v3.46a15.33 15.33 0 0 0-5.41-.97 14.99 14.99 0 0 0-7.58 1.95Zm0-5.96v-3.69a19.02 19.02 0 0 1 10.35-1.3c.9.15 1.79.33 2.65.55v3.46a15.32 15.32 0 0 0-9.37-.46c-1.26.35-2.47.82-3.63 1.44Zm-16.25 7.26a22.05 22.05 0 0 1 9.76 2.27V7.6a18.56 18.56 0 0 0-4.72-1.95 19.88 19.88 0 0 0-12.62.87v21.45a22.22 22.22 0 0 1 7.58-1.3Zm14.09 2.27a23.86 23.86 0 0 1 4.8-1.7 21.54 21.54 0 0 1 8.77-.25c1.24.22 2.5.54 3.76.98V6.52a19.3 19.3 0 0 0-3.7-1.14 19.99 19.99 0 0 0-8.92.27 18.56 18.56 0 0 0-4.71 1.95v21.34ZM24 35.34a20.8 20.8 0 0 0-5.63-3.2 17.75 17.75 0 0 0-14.95 1.13c-.76.4-1.5.38-2.2-.05a2.1 2.1 0 0 1-1.05-1.9V5.22c0-.4.1-.78.3-1.14.2-.36.5-.63.89-.81a22.6 22.6 0 0 1 5.2-1.95A23.6 23.6 0 0 1 24 3.92a23.35 23.35 0 0 1 22.64-.65c.4.18.7.45.9.8.2.37.3.75.3 1.15v26.1a2.1 2.1 0 0 1-1.06 1.9 2.1 2.1 0 0 1-2.2.05 19.6 19.6 0 0 0-4.2-1.67 17.75 17.75 0 0 0-10.75.54 20.8 20.8 0 0 0-5.63 3.2Z"/>
</svg>
