<svg xmlns="http://www.w3.org/2000/svg" viewBox="0 0 40 40" width="40" height="40" fill="none">
  <path fill="#774FAA" d="M20 17.83c-5.42 0-10.02-.85-13.81-2.54C2.39 13.59.5 11.55.5 9.17c0-2.39 1.9-4.43 5.69-6.12C9.98 1.35 14.59.5 20 .5c5.42 0 10.02.85 13.81 2.55 3.8 1.7 5.69 3.73 5.69 6.12 0 2.38-1.9 4.42-5.69 6.12-3.79 1.7-8.4 2.54-13.81 2.54Zm0 10.84c-5.42 0-10.02-.85-13.81-2.55C2.39 24.42.5 22.38.5 20v-5.42c0 1.6.74 2.94 2.22 4.04 1.48 1.1 3.25 2 5.3 2.68A43.05 43.05 0 0 0 20 23.25c1.48 0 3.33-.15 5.55-.46 2.22-.3 4.36-.8 6.42-1.49a18.78 18.78 0 0 0 5.3-2.68c1.49-1.1 2.23-2.45 2.23-4.04V20c0 2.38-1.9 4.42-5.69 6.12-3.79 1.7-8.4 2.55-13.81 2.55Zm0 10.83c-5.42 0-10.02-.85-13.81-2.55C2.39 35.25.5 33.22.5 30.83v-5.41c0 1.59.74 2.93 2.22 4.03 1.48 1.1 3.25 2 5.3 2.68A41.95 41.95 0 0 0 20 34.08a41.95 41.95 0 0 0 11.98-1.95 18.78 18.78 0 0 0 5.3-2.68c1.49-1.1 2.23-2.44 2.23-4.03v5.41c0 2.39-1.9 4.43-5.69 6.12-3.79 1.7-8.4 2.55-13.81 2.55Z"/>
</svg>
