<svg xmlns="http://www.w3.org/2000/svg" fill="none" viewBox="0 0 195 27">
  <path fill="#fff" d="M117.201 17.776h1.022v-3.198h2.198c1.926 0 3.556-1.01 3.556-2.966v-.026c0-1.786-1.345-2.874-3.388-2.874h-3.388v9.064Zm1.022-4.13v-3.99h2.288c1.461 0 2.431.674 2.431 1.968v.026c0 1.191-.983 1.994-2.482 1.994h-2.237Zm8.391 4.13h6.116v-.946h-5.095V8.712h-1.021v9.064Zm8.005 0h1.048l1.073-2.396h4.926l1.061 2.396h1.099l-4.125-9.129h-.957l-4.125 9.129Zm2.522-3.328 2.069-4.61 2.056 4.61h-4.125Zm10.476 3.328h1.034V9.657h3.039v-.945h-7.112v.945h3.039v8.119Zm6.768 0h1.021v-3.95h4.901v-.932h-4.901V9.657h5.483v-.945h-6.504v9.064Zm13.274.155c2.754 0 4.629-2.188 4.629-4.687v-.026c0-2.499-1.849-4.661-4.603-4.661-2.754 0-4.629 2.188-4.629 4.687v.026c0 2.499 1.849 4.661 4.603 4.661Zm.026-.945c-2.069 0-3.569-1.684-3.569-3.742v-.026c0-2.059 1.474-3.716 3.543-3.716s3.569 1.683 3.569 3.742v.026c0 2.058-1.474 3.716-3.543 3.716Zm7.533.79h1.022v-3.522h2.586l2.624 3.522h1.255l-2.78-3.704c1.422-.258 2.456-1.139 2.456-2.64v-.027c0-.712-.258-1.346-.698-1.787-.569-.57-1.461-.906-2.573-.906h-3.892v9.064Zm1.022-4.442V9.657h2.792c1.462 0 2.315.674 2.315 1.787v.026c0 1.165-.97 1.864-2.328 1.864h-2.779Zm9.098 4.442h.996v-7.329l3.297 4.843h.051l3.298-4.856v7.342h1.021V8.712h-1.034l-3.298 4.946-3.297-4.946h-1.034v9.064Z" opacity=".65"/>
  <path fill="#fff" d="M13.258 0C5.935 0 0 5.93 0 13.244c0 4.506 2.262 8.489 5.71 10.885V13.244c0-4.169 3.387-7.54 7.548-7.54 4.16 0 7.547 3.383 7.547 7.54 0 4.17-3.386 7.54-7.547 7.54a7.591 7.591 0 0 1-4.499-1.486v6.404c1.4.5 2.912.786 4.499.786 7.322 0 13.257-5.929 13.257-13.244C26.515 5.93 20.58 0 13.258 0Z"/>
  <path fill="#fff" d="M13.257 17.65a4.409 4.409 0 0 0 4.41-4.406 4.409 4.409 0 0 0-4.41-4.406 4.409 4.409 0 0 0-4.41 4.406 4.409 4.409 0 0 0 4.41 4.407Zm25.328-8.837h-3.71v8.862h1.974v-2.77h1.736c1.95 0 3.324-1.262 3.324-3.072 0-1.835-1.3-3.02-3.324-3.02Zm-.112 4.418v.013h-1.624v-2.759h1.624c.937 0 1.462.475 1.462 1.348 0 .887-.537 1.398-1.462 1.398Zm9.698.812h3.936v-1.698h-3.936v-1.847h4.31V8.813h-6.284v8.862h6.297v-1.672h-4.323v-1.96Zm16.005-2.173c0-1.86-1.262-3.057-3.236-3.057h-4.023v8.862h1.974V14.93h1.612l1.574 2.746h2.287l-1.837-3.096c1.037-.499 1.65-1.497 1.65-2.708Zm-3.448 1.411v.013H58.89v-2.821h1.837c.937 0 1.474.499 1.474 1.385 0 .887-.55 1.423-1.474 1.423Zm23.615-4.656c-2.411 0-3.973 1.56-3.973 3.982v1.26c0 2.422 1.562 3.983 3.973 3.983 2.45 0 3.974-1.523 3.974-3.982v-1.261c0-2.46-1.524-3.982-3.974-3.982Zm2 5.33c0 1.398-.738 2.21-2 2.21-1.274 0-1.999-.8-1.999-2.21v-1.423c0-1.398.737-2.21 2-2.21 1.274 0 1.999.8 1.999 2.21v1.423Zm11.857.3-3.574-5.443h-1.824v8.863h1.937v-5.442l3.561 5.442h1.837V8.812H98.2v5.443Zm9.436-5.442-3.186 8.862h1.974l.575-1.81h3.174l.574 1.81h2l-3.187-8.863h-1.924Zm-.125 5.442 1.075-3.358 1.062 3.358h-2.137Zm-35.013-3.932c1.024 0 1.724.612 1.874 1.623l1.837-.275c-.25-1.797-1.724-3.02-3.699-3.02-2.436 0-3.898 1.485-3.898 3.994v1.236c0 2.496 1.462 3.994 3.898 3.994 1.987 0 3.462-1.223 3.699-3.02l-1.837-.3c-.15 1.023-.837 1.635-1.874 1.635-1.687 0-1.937-1.398-1.937-2.234v-1.399c0-.836.25-2.234 1.937-2.234Z"/>
</svg>
