<svg width="45" height="45" viewBox="0 0 45 45" fill="none" xmlns="http://www.w3.org/2000/svg">
    <path fill-rule="evenodd" clip-rule="evenodd" d="M22.5 45C34.9264 45 45 34.9264 45 22.5C45 10.0736 34.9264 0 22.5 0C10.0736 0 0 10.0736 0 22.5C0 34.9264 10.0736 45 22.5 45ZM20.0758 28.4829V28.6364H23.144V28.4829C23.161 27.4261 23.2718 26.544 23.4764 25.8366C23.6809 25.1293 24.0091 24.5199 24.4608 24.0085C24.9125 23.4886 25.5133 22.9943 26.2633 22.5256C27.0133 22.0653 27.6525 21.5369 28.1809 20.9403C28.7179 20.3437 29.127 19.6662 29.4082 18.9077C29.698 18.1491 29.8429 17.3011 29.8429 16.3636C29.8429 15.0341 29.536 13.8494 28.9224 12.8097C28.3173 11.7699 27.4565 10.9517 26.34 10.3551C25.2321 9.75852 23.9281 9.46022 22.4281 9.46022C21.0474 9.46022 19.7903 9.73295 18.6568 10.2784C17.5318 10.8239 16.6241 11.6122 15.9338 12.6435C15.252 13.6747 14.877 14.9148 14.8088 16.3636H18.0304C18.0985 15.3579 18.35 14.544 18.7846 13.9219C19.2193 13.2997 19.7605 12.8437 20.4082 12.554C21.0559 12.2642 21.7292 12.1193 22.4281 12.1193C23.2292 12.1193 23.9579 12.2855 24.6142 12.6179C25.2704 12.9503 25.7946 13.4233 26.1866 14.0369C26.5787 14.6506 26.7747 15.375 26.7747 16.2102C26.7747 16.8835 26.6554 17.4972 26.4167 18.0511C26.1866 18.6051 25.8713 19.0952 25.4707 19.5213C25.0701 19.9389 24.6184 20.3011 24.1156 20.6079C23.2804 21.1108 22.5645 21.6605 21.9679 22.2571C21.3713 22.8537 20.911 23.6335 20.5872 24.5966C20.2633 25.5597 20.0929 26.8551 20.0758 28.4829ZM20.0886 35.527C20.5403 35.9787 21.0815 36.2045 21.7122 36.2045C22.1383 36.2045 22.5218 36.1023 22.8627 35.8977C23.2122 35.6847 23.4892 35.4034 23.6937 35.054C23.9068 34.7045 24.0133 34.321 24.0133 33.9034C24.0133 33.2727 23.7875 32.7315 23.3358 32.2798C22.8841 31.8281 22.3429 31.6023 21.7122 31.6023C21.0815 31.6023 20.5403 31.8281 20.0886 32.2798C19.6369 32.7315 19.411 33.2727 19.411 33.9034C19.411 34.5341 19.6369 35.0753 20.0886 35.527Z" fill="#757575"/>
</svg>
