<svg width="365" height="51" viewBox="0 0 365 51" fill="none" xmlns="http://www.w3.org/2000/svg">
    <g opacity="0.65">
        <path d="M220.348 34.2255H222.269V28.0678H226.402C230.024 28.0678 233.087 26.1233 233.087 22.359V22.3091C233.087 18.8688 230.559 16.7747 226.718 16.7747H220.348V34.2255ZM222.269 26.2729V18.5946H226.572C229.319 18.5946 231.142 19.8909 231.142 22.3839V22.4338C231.142 24.7273 229.295 26.2729 226.475 26.2729H222.269Z" fill="white"/>
        <path d="M238.045 34.2255H249.544V32.4056H239.966V16.7747H238.045V34.2255Z" fill="white"/>
        <path d="M253.097 34.2255H255.066L257.084 29.6135H266.346L268.339 34.2255H270.406L262.651 16.6501H260.852L253.097 34.2255ZM257.837 27.8186L261.727 18.9436L265.592 27.8186H257.837Z" fill="white"/>
        <path d="M277.533 34.2255H279.478V18.5946H285.191V16.7747H271.82V18.5946H277.533V34.2255Z" fill="white"/>
        <path d="M290.258 34.2255H292.178V26.6219H301.392V24.827H292.178V18.5946H302.486V16.7747H290.258V34.2255Z" fill="white"/>
        <path d="M315.215 34.5246C320.393 34.5246 323.918 30.3115 323.918 25.5001V25.4502C323.918 20.6388 320.441 16.4756 315.263 16.4756C310.085 16.4756 306.56 20.6887 306.56 25.5001V25.55C306.56 30.3614 310.037 34.5246 315.215 34.5246ZM315.263 32.7048C311.374 32.7048 308.554 29.4639 308.554 25.5001V25.4502C308.554 21.4864 311.325 18.2954 315.215 18.2954C319.104 18.2954 321.924 21.5363 321.924 25.5001V25.55C321.924 29.5138 319.153 32.7048 315.263 32.7048Z" fill="white"/>
        <path d="M329.427 34.2255H331.347V27.4446H336.209L341.144 34.2255H343.502L338.275 27.0956C340.949 26.597 342.894 24.9018 342.894 22.01V21.9601C342.894 20.589 342.408 19.3674 341.582 18.5198C340.512 17.4229 338.835 16.7747 336.744 16.7747H329.427V34.2255ZM331.347 25.6746V18.5946H336.598C339.345 18.5946 340.949 19.8909 340.949 22.0349V22.0847C340.949 24.3284 339.126 25.6746 336.574 25.6746H331.347Z" fill="white"/>
        <path d="M348.453 34.2255H350.325V20.1153L356.524 29.439H356.621L362.82 20.0904V34.2255H364.741V16.7747H362.796L356.597 26.2978L350.398 16.7747H348.453V34.2255Z" fill="white"/>
    </g>
    <path d="M24.9257 0C11.159 0 0 11.4161 0 25.5C0 34.1763 4.25217 41.8431 10.7361 46.4576V25.5C10.7361 17.4727 17.1026 10.9835 24.9257 10.9835C32.7488 10.9835 39.1153 17.4967 39.1153 25.5C39.1153 33.5273 32.7488 40.0165 24.9257 40.0165C21.7542 40.0165 18.8411 38.935 16.4683 37.1565V49.4859C19.0995 50.4472 21.9421 51 24.9257 51C38.6924 51 49.8514 39.5839 49.8514 25.5C49.8514 11.4161 38.6924 0 24.9257 0Z" fill="#E97E03"/>
    <path d="M24.926 33.9846C29.506 33.9846 33.2189 30.1861 33.2189 25.5006C33.2189 20.815 29.506 17.0166 24.926 17.0166C20.3459 17.0166 16.6331 20.815 16.6331 25.5006C16.6331 30.1861 20.3459 33.9846 24.926 33.9846Z" fill="#E97E03"/>
    <path d="M72.5448 16.9688H65.5675V34.0328H69.2793V28.6973H72.5448C76.2097 28.6973 78.7939 26.2699 78.7939 22.785C78.7939 19.252 76.3506 16.9688 72.5448 16.9688ZM72.3334 25.4768V25.5008H69.2793V20.1893H72.3334C74.0953 20.1893 75.082 21.1026 75.082 22.785C75.082 24.4914 74.0718 25.4768 72.3334 25.4768Z" fill="white"/>
    <path d="M90.5639 27.039H97.9641V23.7704H90.5639V20.2133H98.6689V16.9688H86.8521V34.0328H98.6924V30.8123H90.5639V27.039Z" fill="white"/>
    <path d="M120.659 22.8571C120.659 19.276 118.286 16.9688 114.574 16.9688H107.009V34.0328H110.721V28.7454H113.752L116.712 34.0328H121.011L117.557 28.0724C119.507 27.1111 120.659 25.1884 120.659 22.8571ZM114.175 25.5729V25.5969H110.721V20.1653H114.175C115.936 20.1653 116.947 21.1266 116.947 22.833C116.947 24.5394 115.913 25.5729 114.175 25.5729Z" fill="white"/>
    <path d="M158.576 16.6074C154.042 16.6074 151.105 19.6117 151.105 24.2742V26.7017C151.105 31.3643 154.042 34.3685 158.576 34.3685C163.18 34.3685 166.046 31.4364 166.046 26.7017V24.2742C166.046 19.5396 163.18 16.6074 158.576 16.6074ZM162.335 26.8699C162.335 29.5617 160.948 31.1239 158.576 31.1239C156.179 31.1239 154.817 29.5857 154.817 26.8699V24.13C154.817 21.4382 156.203 19.876 158.576 19.876C160.972 19.876 162.335 21.4142 162.335 24.13V26.8699Z" fill="white"/>
    <path d="M184.629 27.4475L177.91 16.9688H174.48V34.0328H178.121V23.554L184.817 34.0328H188.27V16.9688H184.629V27.4475Z" fill="white"/>
    <path d="M202.366 16.9688L196.375 34.0328H200.087L201.167 30.5479H207.135L208.215 34.0328H211.974L205.983 16.9688H202.366ZM202.131 27.4475L204.151 20.9824L206.148 27.4475H202.131Z" fill="white"/>
    <path d="M136.304 19.8758C138.231 19.8758 139.546 21.0535 139.828 23.0002L143.282 22.4715C142.812 19.0106 140.04 16.6553 136.328 16.6553C131.747 16.6553 128.998 19.5153 128.998 24.3461V26.7255C128.998 31.5323 131.747 34.4164 136.328 34.4164C140.063 34.4164 142.835 32.061 143.282 28.6001L139.828 28.0233C139.546 29.9941 138.254 31.1718 136.304 31.1718C133.133 31.1718 132.663 28.48 132.663 26.8697V24.1779C132.663 22.5676 133.133 19.8758 136.304 19.8758Z" fill="white"/>
</svg>
