<svg xmlns="http://www.w3.org/2000/svg" width="131" height="113" fill="none">
  <path fill="url(#a)" d="m16 113 49.5-86 49.5 86H16Zm89.78-3.8L65.5 39.24l-40.27 69.98h80.55Z" opacity=".5"/>
  <path fill="url(#b)" d="m86.89 112.93-21.5-37.38-21.08 36.94-7.31-.08L65.33 63 94 113l-7.11-.07Z" opacity=".5"/>
  <path fill="url(#c)" d="m106.72 71.12.88-.6a30.49 30.49 0 0 0 9.09-40.41 30.5 30.5 0 0 0-18.65-14.27A30.88 30.88 0 0 0 77 17.73l-.95.45L65.5 0 0 113h131l-24.28-41.89Zm-26.9-48.14A24.83 24.83 0 0 1 96.5 21.6a24.53 24.53 0 0 1 15.01 11.47 24.36 24.36 0 0 1 2.47 18.7 24.26 24.26 0 0 1-9.54 13.67l-.72.52-24.7-42.6.8-.37ZM65.5 11.72l55.31 95.43H10.18L65.5 11.72Z"/>
  <defs>
    <radialGradient id="a" cx="0" cy="0" r="1" gradientTransform="matrix(78 0 0 78 104.3 37.88)" gradientUnits="userSpaceOnUse">
      <stop stop-color="#A37AD7"/>
      <stop offset=".96" stop-color="#774FAA"/>
    </radialGradient>
    <radialGradient id="b" cx="0" cy="0" r="1" gradientTransform="matrix(77 0 0 78 -142.76 -13.48)" gradientUnits="userSpaceOnUse">
      <stop stop-color="#A37AD7"/>
      <stop offset=".96" stop-color="#774FAA"/>
    </radialGradient>
    <radialGradient id="c" cx="0" cy="0" r="1" gradientTransform="matrix(195 0 0 194 -8.77 119.05)" gradientUnits="userSpaceOnUse">
      <stop stop-color="#472F64"/>
      <stop offset=".95" stop-color="#B98CF2"/>
    </radialGradient>
  </defs>
</svg>
