<svg width="25" height="24" viewBox="0 0 25 24" fill="none" xmlns="http://www.w3.org/2000/svg">
  <path fill-rule="evenodd" clip-rule="evenodd" d="M0.5 19.46C0.5 18.908 0.947 18.497 1.5 18.497H10.521C11.072 18.497 11.521 18.908 11.521 19.46V21.497H0.5V19.46V19.46Z" stroke="#757575" stroke-linecap="round" stroke-linejoin="round"/>
  <path fill-rule="evenodd" clip-rule="evenodd" d="M8.49951 16.4971H3.49951V13.4971H8.49951V16.4971Z" stroke="#757575" stroke-linecap="round" stroke-linejoin="round"/>
  <path d="M1.5 18.4971V12.9601C1.5 12.1321 2.171 11.4971 3 11.4971H9C9.828 11.4971 10.5 12.1321 10.5 12.9601V18.4561" stroke="#757575" stroke-linecap="round" stroke-linejoin="round"/>
  <path fill-rule="evenodd" clip-rule="evenodd" d="M12.5205 19.46C12.5205 18.908 12.9675 18.497 13.5205 18.497L22.5235 18.516C23.0755 18.516 23.5235 18.927 23.5235 19.48V21.516L12.5205 21.497V19.46V19.46Z" stroke="#757575" stroke-linecap="round" stroke-linejoin="round"/>
  <path fill-rule="evenodd" clip-rule="evenodd" d="M20.5205 16.4971H15.5205V13.4971H20.5205V16.4971Z" stroke="#757575" stroke-linecap="round" stroke-linejoin="round"/>
  <path d="M13.5205 18.4971V12.9601C13.5205 12.1321 14.1915 11.4971 15.0205 11.4971H21.0205C21.8485 11.4971 22.5205 12.1321 22.5205 12.9601V18.4561" stroke="#757575" stroke-linecap="round" stroke-linejoin="round"/>
  <path fill-rule="evenodd" clip-rule="evenodd" d="M14.5135 7.50012H9.51349V4.50012H14.5135V7.50012Z" stroke="#757575" stroke-linecap="round" stroke-linejoin="round"/>
  <path d="M7.5137 9.5V3.964C7.5137 3.135 8.1847 2.5 9.0137 2.5H15.0137C15.8417 2.5 16.5137 3.135 16.5137 3.964V9.458" stroke="#757575" stroke-linecap="round" stroke-linejoin="round"/>
  <path d="M13.6045 12.5117L10.4585 12.5067" stroke="#757575" stroke-linecap="round" stroke-linejoin="round"/>
  <path d="M6.5127 11.4971V10.4641C6.5127 9.91112 6.9597 9.50012 7.5127 9.50012L16.5157 9.51812C17.0677 9.51812 17.5157 9.93112 17.5157 10.4811V11.3931" stroke="#757575" stroke-linecap="round" stroke-linejoin="round"/>
</svg>
