<svg xmlns="http://www.w3.org/2000/svg" width="183" height="22" fill="none">
  <g clip-path="url(#a)">
    <path fill="url(#b)" d="M20.3 13.47a6.04 6.04 0 0 0-6.03-10.45L12.46-.1 8.69 6.4 0 21.47h24.93l-4.62-8Zm-2.18-9.3a4.39 4.39 0 0 1 1.35 7.85L15.1 4.47c.94-.45 2-.55 3.02-.28Zm-5.66-.98 9.6 16.62h-5.62L9.64 8.06l2.82-4.87Zm-9.6 16.62 5.83-10.1 5.83 10.1H2.86Z"/>
    <path fill="url(#c)" d="M20.32 13.43A6.04 6.04 0 0 0 14.3 2.98L12.48-.15 8.72 6.36.02 21.43h24.92l-4.62-8Zm-2.17-9.29a4.39 4.39 0 0 1 1.35 7.85l-4.38-7.57c.94-.45 2-.55 3.03-.28Zm-5.67-.99 9.6 16.62h-5.62L9.67 8.02l2.8-4.87Zm-9.6 16.62 5.84-10.1 5.83 10.1H2.88Z"/>
    <path fill="#fff" d="M41.46 15.15h-3.5v6.29h-4.63V.48h8.59c5.01 0 8.05 2.97 8.05 7.25v.05c0 4.85-3.79 7.37-8.5 7.37Zm3.81-7.33c0-2.07-1.44-3.17-3.75-3.17h-3.57v6.4h3.66c2.31 0 3.66-1.38 3.66-3.17v-.06Zm7.27 13.62V.48H68.4v4.1H57.14v4.26h9.9v4.1h-9.9v4.4h11.4v4.1h-16Zm32.38 0-4.5-6.7h-3.63v6.7h-4.62V.48h9.6c4.96 0 7.93 2.61 7.93 6.92v.06a6.5 6.5 0 0 1-4.5 6.5l5.13 7.48h-5.41Zm.1-13.8c0-1.97-1.39-3-3.64-3H76.8v6.02h4.69c2.25 0 3.53-1.2 3.53-2.96v-.06ZM102.95 22a10.73 10.73 0 0 1-10.92-10.92v-.06A10.8 10.8 0 0 1 103.13.04c4.02 0 6.43 1.33 8.4 3.27l-2.97 3.43c-1.65-1.5-3.32-2.4-5.45-2.4-3.59 0-6.18 2.97-6.18 6.61v.06c0 3.64 2.53 6.67 6.18 6.67 2.43 0 3.92-.97 5.6-2.49l2.98 3a10.9 10.9 0 0 1-8.73 3.8Zm21.11 0c-6.58 0-11.3-4.89-11.3-10.92v-.06c0-6.04 4.78-10.98 11.35-10.98 6.57 0 11.3 4.88 11.3 10.92v.06c0 6.03-4.79 10.98-11.35 10.98Zm6.45-10.98c0-3.64-2.68-6.67-6.45-6.67-3.78 0-6.4 2.97-6.4 6.61v.06c0 3.64 2.69 6.67 6.46 6.67s6.39-2.97 6.39-6.61v-.06Zm30.34 10.43L171.2.04l10.34 21.42h-5.19L171.2 10.8l-5.14 10.66h-5.2ZM158.94.5V22L143.17 9.26v12.16h-4.91V.04l15.77 12.68V.5h4.9Z"/>
  </g>
  <defs>
    <linearGradient id="b" x1="-.12" x2="20.38" y1="23.67" y2="3.18" gradientUnits="userSpaceOnUse">
      <stop stop-color="#FC3519"/>
      <stop offset="1" stop-color="#F0D136"/>
    </linearGradient>
    <linearGradient id="c" x1="2.83" x2="21.33" y1="21.9" y2="3.41" gradientUnits="userSpaceOnUse">
      <stop stop-color="#FC3519"/>
      <stop offset="1" stop-color="#F0D136"/>
    </linearGradient>
    <clipPath id="a">
      <path fill="#fff" d="M0 0h181.54v22H0z"/>
    </clipPath>
  </defs>
</svg>
