<svg xmlns="http://www.w3.org/2000/svg" viewBox="0 0 301 261" width="301" height="261" fill="none">
  <path fill="#C59FF4" d="M254.03 255 150.22 75.22 46.42 255h207.6Zm-188.27-7.93 84.46-144.9 84.46 144.9h-26.5l-58.34-101.05L91.5 247.07H65.76Zm42.6 0 41.62-72.41 41.92 72.4h-83.54Z" opacity=".5"/>
  <path fill="url(#aa)" d="m244.75 163.73 2.02-1.39a70.17 70.17 0 0 0 27.86-39.56 69.95 69.95 0 0 0-7.01-53.45 69.91 69.91 0 0 0-42.77-32.83 70.56 70.56 0 0 0-18.3-2.43 70.65 70.65 0 0 0-29.97 6.77l-2.2 1.04L150.23 0 0 260.16h300.44l-55.68-96.43h-.01ZM183.07 52.9a56.66 56.66 0 0 1 72.68 23.2 56.29 56.29 0 0 1 5.66 43.05 55.79 55.79 0 0 1-21.87 31.48l-1.67 1.18-56.64-98.1 1.83-.83.01.02Zm-32.85-25.95 126.86 219.71H23.36l126.86-219.7Z"/>
  <defs>
    <linearGradient id="aa" x1="57.79" x2="358.48" y1="292.94" y2=".64" gradientUnits="userSpaceOnUse">
      <stop stop-color="#472F64"/>
      <stop offset=".46" stop-color="#B98CF2"/>
      <stop offset="1" stop-color="#FF7E1A"/>
    </linearGradient>
  </defs>
</svg>
