<svg xmlns="http://www.w3.org/2000/svg" width="310" height="269" fill="none" viewBox="0 0 310 269">
  <g fill="#B98CF2" opacity=".67">
    <path d="M52.85 255.05 155 77.78l102.14 177.27h-15.23L155 105.65l-86.9 149.4H52.84Z"/>
    <path d="M94.65 255.05h17.4l42.7-74.46 43.02 74.46h16.8L154.6 150.98 94.65 255.05Z"/>
  </g>
  <path fill="url(#aa)" d="m252.53 169.29 2.1-1.44a72.55 72.55 0 0 0 28.74-40.9 72.46 72.46 0 0 0-7.24-55.27A72.16 72.16 0 0 0 232 37.74a72.67 72.67 0 0 0-18.88-2.51 72.77 72.77 0 0 0-30.92 7l-2.26 1.07L155 0 0 269h310l-57.45-99.71h-.02ZM188.9 54.7a58.36 58.36 0 0 1 74.99 24 58.3 58.3 0 0 1 5.84 44.51 57.68 57.68 0 0 1-22.57 32.55l-1.72 1.22L187 55.54l1.88-.86.02.01ZM155 27.87l130.9 227.18H24.1L155 27.87Z"/>
  <defs>
    <linearGradient id="aa" x1="25.11" x2="348.51" y1="251.64" y2="37.93" gradientUnits="userSpaceOnUse">
      <stop stop-color="#7E57C2"/>
      <stop offset=".46" stop-color="#B98CF2"/>
      <stop offset="1" stop-color="#FF7E1A"/>
    </linearGradient>
  </defs>
</svg>
