<svg xmlns="http://www.w3.org/2000/svg" fill="none" viewBox="0 0 421 252" width="421" height="252">
  <path stroke="#DAA211" stroke-width="2" d="M147 105V64m132 108v-34m-15.3-32.5V30.9m-127 174v-74.5"/>
  <rect width="199" height="41" x="121" y="97" fill="#4E0E80" rx="4"/>
  <g filter="url(#filter0_d_29_3917)">
    <rect width="93" height="41" x="85" y="203.9" fill="#fff" rx="4"/>
    <rect width="92" height="40" x="85.5" y="204.4" stroke="#F5F5F5" rx="3.5"/>
  </g>
  <path fill="#fff" d="M166.1 119h-2.7v-1.4h2.7c.5 0 1-.1 1.2-.3.3-.1.5-.3.7-.6l.2-1-.2-1-.7-.6c-.3-.2-.7-.3-1.2-.3H164v9.2h-1.8v-10.7h4a4 4 0 0 1 2.1.5c.6.3 1 .7 1.4 1.2.3.5.4 1 .4 1.7s-.1 1.3-.4 1.8a3 3 0 0 1-1.4 1.1 5 5 0 0 1-2 .4Zm9.2 4.1c-.5 0-1 0-1.6-.2a3.5 3.5 0 0 1-2-2l-.2-1.6v-.3c0-.6.1-1.2.3-1.7.2-.5.4-.9.8-1.3l1.1-.8a3.6 3.6 0 0 1 3 0l1 .8.6 1.2.2 1.6v.8h-6.1v-1.3h4.4v-.1l-.2-1-.5-.6c-.3-.2-.6-.3-1-.3l-.8.2a1 1 0 0 0-.5.6l-.4.8-.1 1.1v.3l.1 1 .5.7.6.6 1 .1a2.4 2.4 0 0 0 2-1l.9 1-.7.7-1 .5a4 4 0 0 1-1.4.2Zm6.8-6.5v6.4h-1.7v-8h1.6l.1 1.6Zm2.4-1.6v1.7a3.4 3.4 0 0 0-.7 0h-.8a1.5 1.5 0 0 0-1 1v.7h-.5c0-.4 0-.9.2-1.3 0-.4.2-.8.4-1.1.2-.4.5-.6.8-.8a2 2 0 0 1 1.4-.2h.2Zm4.7 6.7.8-.1.5-.5c.2-.2.3-.5.3-.7h1.6c0 .5-.1 1-.4 1.4a4 4 0 0 1-1.2 1c-.5.2-1 .3-1.6.3-.6 0-1.1 0-1.6-.3-.4-.2-.8-.5-1-.8-.4-.4-.6-.8-.8-1.3l-.2-1.5v-.3l.2-1.5c.2-.5.4-1 .7-1.3a3 3 0 0 1 1.1-.9 4.1 4.1 0 0 1 3.3.1c.5.3.8.6 1.1 1 .3.5.4 1 .4 1.6h-1.6l-.2-.8-.6-.6-.8-.2c-.4 0-.7.1-.9.3l-.5.5-.3.9-.1 1v1.2l.4.7c0 .3.3.5.5.6.2.2.5.2.9.2Zm4.7-2.6v-.1c0-.6.1-1.1.3-1.6.1-.5.4-1 .7-1.3.3-.4.7-.7 1.1-.9.5-.2 1-.3 1.6-.3.6 0 1.1.1 1.6.3.4.2.8.5 1.1.9.3.3.6.8.7 1.3.2.5.3 1 .3 1.6v.1a5 5 0 0 1-.3 1.6 3.4 3.4 0 0 1-3.4 2.4c-.6 0-1 0-1.5-.3-.5-.2-.9-.4-1.2-.8-.3-.4-.6-.8-.7-1.3a5 5 0 0 1-.3-1.6Zm1.8-.1v.1l.1 1c0 .4.2.6.3.9l.6.5c.3.2.6.2 1 .2a1.7 1.7 0 0 0 1.4-.7l.3-.9.1-1V118l-.4-.9a1.7 1.7 0 0 0-1.5-.8l-.9.2-.6.6-.3.9-.1 1Zm9.3-2.2v6.2h-1.8v-8h1.7v1.8Zm-.3 2h-.6c0-.6 0-1.1.2-1.6s.4-.9.7-1.2a2.8 2.8 0 0 1 2.3-1h1l.8.6c.2.2.4.5.5 1l.2 1.3v5.1H208v-5.1c0-.4 0-.7-.2-1a1 1 0 0 0-.4-.4l-.8-.2a1.7 1.7 0 0 0-1.4.8l-.4.7-.1 1Zm11.8 2.6v-3.8l-.1-.7a1 1 0 0 0-.5-.5l-.8-.1-.7.1-.5.4a1 1 0 0 0-.2.6h-1.8c0-.4.1-.7.3-1l.6-.7c.3-.3.7-.4 1-.6l1.4-.2a4 4 0 0 1 1.6.3c.5.2.8.5 1 1 .3.3.5.8.5 1.4v4.6l.3.7v.1h-1.8l-.2-.7v-.9Zm.3-3.2v1h-1.3l-.9.2-.6.2a1.1 1.1 0 0 0-.5 1c0 .2 0 .4.2.6 0 .2.2.3.4.4l.7.1a2 2 0 0 0 1.6-.7l.2-.6.6.7-.3.7-.6.6a2.8 2.8 0 0 1-1.9.7 3 3 0 0 1-1.3-.3c-.4-.2-.8-.5-1-.8l-.3-1.2c0-.4 0-.8.2-1.1.2-.4.4-.6.7-.8.3-.3.7-.4 1.1-.5.5-.2 1-.2 1.6-.2h1.4Zm12.4 3.2v-3.8l-.1-.7a1 1 0 0 0-.5-.5l-.7-.1-.8.1-.5.4a1 1 0 0 0-.2.6h-1.7c0-.4 0-.7.2-1l.7-.7c.3-.3.6-.4 1-.6l1.3-.2a4 4 0 0 1 1.6.3c.5.2.9.5 1.1 1 .3.3.4.8.4 1.4v3.6l.1 1 .2.7v.1h-1.8l-.2-.7v-.9Zm.3-3.2v1h-1.2l-1 .2-.5.2a1.1 1.1 0 0 0-.5 1l.1.6.4.4.7.1a2 2 0 0 0 1.6-.7l.3-.6.5.7c0 .2-.1.5-.3.7l-.5.6a2.8 2.8 0 0 1-2 .7 3 3 0 0 1-1.3-.3l-1-.8-.3-1.2c0-.4 0-.8.2-1.1.2-.4.4-.6.7-.8.4-.3.7-.4 1.2-.5.4-.2 1-.2 1.5-.2h1.4Zm7 3.5.8-.1c.3-.1.5-.3.6-.5.2-.2.2-.5.2-.7h1.7c0 .5-.2 1-.4 1.4a4 4 0 0 1-1.2 1c-.5.2-1 .3-1.6.3-.6 0-1.1 0-1.6-.3l-1.1-.8-.7-1.3-.2-1.5v-.3c0-.5 0-1 .2-1.5s.4-1 .7-1.3a3 3 0 0 1 1.1-.9c.5-.2 1-.3 1.6-.3.6 0 1.2.2 1.7.4a3 3 0 0 1 1.6 2.6H238c0-.3 0-.5-.2-.8l-.5-.6-.8-.2c-.4 0-.7.1-1 .3l-.5.5-.3.9v2.2l.3.7c.2.3.3.5.6.6.2.2.5.2.9.2Zm8.4 0 .7-.1c.3-.1.5-.3.6-.5.2-.2.2-.5.2-.7h1.7c0 .5-.2 1-.4 1.4a4 4 0 0 1-1.2 1c-.5.2-1 .3-1.6.3-.6 0-1.1 0-1.6-.3l-1.1-.8-.7-1.3-.2-1.5v-.3c0-.5 0-1 .2-1.5s.4-1 .7-1.3a3 3 0 0 1 1.1-.9 3.8 3.8 0 0 1 3.2.1c.5.3.9.6 1.2 1 .3.5.4 1 .4 1.6h-1.7c0-.3 0-.5-.2-.8l-.5-.6-.8-.2c-.4 0-.7.1-1 .3l-.5.5-.3.9v2.2l.3.7c.1.3.3.5.6.6.2.2.5.2.9.2Zm4.7-2.6v-.1c0-.6 0-1.1.2-1.6s.4-1 .8-1.3c.3-.4.7-.7 1.1-.9.5-.2 1-.3 1.6-.3l1.5.3c.5.2.9.5 1.2.9.3.3.5.8.7 1.3.2.5.3 1 .3 1.6v.1a5 5 0 0 1-.3 1.6 4 4 0 0 1-.7 1.3 3.4 3.4 0 0 1-2.7 1.1c-.6 0-1.1 0-1.6-.3-.4-.2-.8-.4-1.1-.8-.4-.4-.6-.8-.8-1.3a5 5 0 0 1-.2-1.6Zm1.8-.1v1.1l.4.9.6.5c.2.2.5.2.9.2a1.7 1.7 0 0 0 1.4-.7l.4-.9V118l-.4-.9a1.7 1.7 0 0 0-1.4-.8l-.9.2-.6.6c-.2.3-.3.5-.3.9l-.1 1Zm12.3 2.1v-6h1.7v7.9h-1.6l-.1-1.9Zm.2-1.6h.6c0 .5 0 1-.2 1.4 0 .5-.3.9-.5 1.2l-1 .8c-.3.2-.8.2-1.3.2l-1-.1-1-.5-.5-1-.1-1.3V115h1.7v5.1l.1.7c0 .2.2.4.3.5l.4.2.5.1a2 2 0 0 0 1.2-.3c.3-.2.5-.4.6-.8l.2-1.1Zm5.6-2.7v6.2h-1.8v-8h1.7v1.8Zm-.4 2h-.5c0-.6 0-1.1.2-1.6l.6-1.2a2.8 2.8 0 0 1 2.3-1h1l.9.6c.2.2.4.5.5 1l.2 1.3v5.1h-1.8v-5.1c0-.4 0-.7-.2-1a1 1 0 0 0-.5-.4l-.7-.2a1.7 1.7 0 0 0-1.5.8l-.3.7-.2 1Zm11-3.7v1.3h-4.4V115h4.4Zm-3.1-2h1.7v7.7l.1.6.3.2.5.1a2.7 2.7 0 0 0 .6 0v1.3a4.4 4.4 0 0 1-1.2.1c-.4 0-.7 0-1-.2-.4-.1-.6-.3-.8-.7l-.2-1.3v-7.8Z"/>
  <g filter="url(#filter1_d_29_3917)">
    <rect width="176" height="41" x="4" y="24" fill="#fff" rx="4"/>
    <rect width="175" height="40" x="4.5" y="24.5" stroke="#F5F5F5" rx="3.5"/>
  </g>
  <path fill="#000" d="M46.2 46.8h1.3c0 .7-.3 1.2-.6 1.7s-.7 1-1.2 1.2a4 4 0 0 1-2 .4c-.6 0-1.1 0-1.6-.3-.5-.2-.9-.5-1.2-1-.4-.3-.6-.8-.8-1.4-.2-.5-.3-1.2-.3-1.9v-1c0-.7.1-1.3.3-1.9.2-.5.4-1 .8-1.4.3-.4.8-.7 1.3-1a4 4 0 0 1 1.6-.3 4 4 0 0 1 2 .4 4.3 4.3 0 0 1 1.7 2.9h-1.3l-.4-1.2c-.2-.3-.4-.6-.7-.7-.3-.2-.8-.3-1.3-.3-.4 0-.8 0-1.1.2-.4.2-.7.5-.9.8l-.5 1-.2 1.5v1c0 .5 0 1 .2 1.4 0 .4.2.8.5 1.1.2.3.4.6.8.8.3.2.7.3 1.1.3.6 0 1-.1 1.3-.3.4-.2.6-.4.8-.8l.4-1.2Zm7.6 1.5v-5.7H55V50h-1.2v-1.7Zm.2-1.6h.5l-.1 1.4a3 3 0 0 1-.5 1c-.2.4-.5.6-.9.8-.4.2-.8.2-1.3.2a3 3 0 0 1-1-.1 2 2 0 0 1-1.3-1.4l-.2-1.2v-4.8h1.3v4.8l.1.8c0 .2.2.4.3.5.1.2.3.2.4.3h.6c.5 0 1 0 1.2-.2.3-.3.6-.5.7-.9l.2-1.2Zm7.5 1.3c0-.1 0-.3-.2-.5a1 1 0 0 0-.5-.4 4 4 0 0 0-1-.3l-1.2-.3-.8-.5a1 1 0 0 1-.5-.6c-.2-.2-.2-.5-.2-.8 0-.3 0-.5.2-.8l.5-.7.9-.5 1.1-.1c.6 0 1.1 0 1.5.3.5.2.8.5 1 .8l.3 1.2h-1.2c0-.2 0-.4-.2-.6l-.5-.5-.9-.2a2 2 0 0 0-.8.2c-.2 0-.4.2-.5.4a1 1 0 0 0 0 .9s0 .2.2.3l.5.2.9.2a7 7 0 0 1 1.5.5l.8.7a2 2 0 0 1-.5 2.6 2 2 0 0 1-.9.5 4 4 0 0 1-1.1.1c-.7 0-1.2 0-1.7-.3a2 2 0 0 1-1-1c-.3-.3-.4-.7-.4-1h1.3c0 .3.1.5.3.7l.7.5a2.6 2.6 0 0 0 1.6 0l.6-.4.2-.6Zm6.1-5.4v1h-4v-1h4ZM65 40.8h1.3v7.9l.4.3h.4a2 2 0 0 0 .6 0v1a3 3 0 0 1-1 .1 2 2 0 0 1-.9-.1l-.6-.7-.2-1.1v-7.4Zm3.8 5.6v-.2l.3-1.5.6-1.2a3 3 0 0 1 1-.7l1.5-.3c.5 0 1 0 1.4.3.4.1.8.4 1 .7.3.4.6.8.7 1.2l.3 1.5v.2l-.3 1.5-.6 1.2a3.1 3.1 0 0 1-2.5 1c-.5 0-1 0-1.4-.2a3.2 3.2 0 0 1-1.7-2l-.3-1.5Zm1.3-.2v.2l.1 1 .4.9.7.6.9.2c.3 0 .6 0 1-.2l.6-.6.4-.9v-2.2l-.4-.9-.7-.6-1-.2c-.3 0-.6 0-.8.2a2 2 0 0 0-.7.6l-.4.9-.1 1Zm8.5-2.1V50h-1.3v-7.4h1.2v1.5Zm-.3 2-.6-.1.2-1.4c.2-.4.3-.8.6-1.1.2-.3.6-.6 1-.8a3 3 0 0 1 1.2-.2l1 .1a2 2 0 0 1 1.2 1.3c.2.3.2.7.2 1.2V50H82v-4.9l-.2-.9-.6-.5a2 2 0 0 0-.8-.2 2 2 0 0 0-1 .2l-.6.6-.3.8v1Zm4.8-.8-.8.3c0-.4 0-.8.2-1.2 0-.4.3-.7.5-1l1-.7 1.2-.2 1 .1c.4.1.6.3.8.5l.5.8.2 1.2V50h-1.3v-4.9c0-.4 0-.7-.2-1a1 1 0 0 0-.5-.4 2.2 2.2 0 0 0-1.6 0c-.2 0-.4.2-.5.4l-.4.5v.7Zm9.7 4.8c-.5 0-1 0-1.4-.2a3.2 3.2 0 0 1-1.7-1.9c-.2-.4-.3-1-.3-1.4v-.3c0-.6.1-1.2.3-1.6.2-.5.4-1 .7-1.2a3.1 3.1 0 0 1 3.6-.8l1 .8.5 1.2c.2.4.2.9.2 1.4v.6h-5.5v-1h4.2v-.2c0-.3 0-.6-.2-1 0-.2-.3-.5-.5-.7-.3-.2-.6-.3-1-.3a1.7 1.7 0 0 0-1.4.7c-.2.3-.4.5-.4.9l-.2 1.2v.3c0 .3 0 .6.2 1 0 .3.2.5.4.8l.7.5.9.2c.4 0 .8 0 1.1-.3l.9-.7.7.6-.6.7a2 2 0 0 1-.9.5c-.4.2-.8.2-1.3.2Zm5.8-6.3V50h-1.2v-7.4h1.2v1.2Zm2.3-1.2v1.1h-.6a2 2 0 0 0-.8.1l-.5.4-.4.6-.2.7-.3.2.1-1.2c.1-.4.2-.8.4-1 .2-.4.4-.6.7-.8a2 2 0 0 1 1.6-.1Zm8.9 3.5H107v-1h2.7c.5 0 1-.2 1.2-.3.3-.2.6-.4.7-.7.2-.3.3-.6.3-1a2 2 0 0 0-.3-1c-.1-.3-.4-.5-.7-.7-.3-.2-.7-.3-1.2-.3h-2.4V50H106V40h3.7c.7 0 1.4.2 1.9.4.5.3.9.7 1.2 1.1.2.5.4 1 .4 1.6 0 .6-.2 1.2-.4 1.6-.3.5-.7.8-1.2 1a4 4 0 0 1-2 .4Zm4.7.3v-.2c0-.5 0-1 .2-1.5l.7-1.2a3 3 0 0 1 1-.7l1.4-.3c.6 0 1 0 1.4.3.5.1.8.4 1.1.7l.7 1.2.2 1.5v.2c0 .5 0 1-.2 1.5l-.7 1.2a3.1 3.1 0 0 1-2.4 1c-.6 0-1 0-1.4-.2a3.2 3.2 0 0 1-1.8-2l-.2-1.5Zm1.3-.2v1.2l.5.9.6.6 1 .2c.3 0 .6 0 .9-.2l.6-.6.4-.9.1-1v-1.2l-.5-.9-.6-.6-1-.2c-.3 0-.6 0-.9.2a2 2 0 0 0-.6.6l-.4.9-.1 1Zm8.4-2.4V50H123v-7.4h1.2v1.2Zm2.4-1.2v1.1h-.7a2 2 0 0 0-.7.1c-.3.1-.5.2-.6.4l-.4.6-.2.7-.3.2.1-1.2.4-1c.2-.4.5-.6.8-.8a2 2 0 0 1 1.6-.1Zm4.7 0v1h-4v-1h4Zm-2.6-1.8h1.2v7.4c0 .2 0 .4.2.5 0 .2.1.2.3.3h.4a2 2 0 0 0 .6 0v1a3 3 0 0 1-1 .1 2 2 0 0 1-.9-.1l-.6-.7-.2-1.1v-7.4Zm8.6 8v-3.9l-.1-.7a1 1 0 0 0-.6-.5c-.2-.2-.5-.2-.8-.2a2 2 0 0 0-.9.1l-.5.5a1 1 0 0 0-.2.6h-1.3c0-.3 0-.6.2-.8l.6-.7a3 3 0 0 1 1-.5c.3-.2.7-.2 1.2-.2s1 0 1.4.2c.4.2.7.5 1 .9.2.3.3.8.3 1.3v4.3l.3.7v.1h-1.4l-.1-.6v-.7Zm.3-3.3v.9h-2.3l-.7.3-.4.5-.2.6c0 .2 0 .4.2.6l.5.5.8.1a2 2 0 0 0 1.7-.8l.3-.7.5.6-.3.6a3 3 0 0 1-1.4 1.2c-.3.2-.6.2-1 .2-.5 0-1 0-1.4-.3l-.8-.7a2 2 0 0 1-.3-1.2c0-.4 0-.7.2-1l.7-.8 1-.4 1.4-.2h1.5Zm4.5-6V50H141V39.5h1.2Z"/>
  <g filter="url(#filter2_d_29_3917)">
    <rect width="185" height="63" x="232" y="172" fill="#fff" rx="4"/>
    <rect width="184" height="62" x="232.5" y="172.5" stroke="#F5F5F5" rx="3.5"/>
  </g>
  <path fill="#000" d="M267.2 195.1h-2.7v-1h2.7c.5 0 .9-.2 1.2-.3.3-.2.6-.4.7-.7.2-.3.2-.6.2-1 0-.3 0-.7-.2-1-.1-.3-.4-.5-.7-.7-.3-.2-.7-.3-1.2-.3h-2.4v8.9h-1.3v-10h3.7c.7 0 1.4.2 1.9.4.5.3.9.7 1.2 1.1.2.5.4 1 .4 1.6 0 .6-.2 1.2-.4 1.6-.3.5-.7.8-1.2 1a4 4 0 0 1-2 .4Zm8 4c-.4 0-.9 0-1.3-.2a3.2 3.2 0 0 1-1.8-1.9l-.2-1.4v-.3c0-.6 0-1.2.2-1.6.2-.5.5-1 .8-1.2a3.1 3.1 0 0 1 3.6-.8l1 .8.5 1.2.2 1.4v.6h-5.6v-1h4.3v-.2c0-.3 0-.6-.2-1l-.6-.7c-.2-.2-.6-.3-1-.3a1.7 1.7 0 0 0-1.4.7l-.4.9-.1 1.2v.3l.1 1 .4.8.7.5 1 .2c.4 0 .8 0 1-.3.4-.2.7-.4.9-.7l.8.6-.6.7a3 3 0 0 1-1 .5c-.3.2-.7.2-1.2.2Zm5.9-6.3v6.2h-1.3v-7.4h1.2v1.2Zm2.3-1.2v1.1h-.6a2 2 0 0 0-.8.1l-.6.4-.4.6-.1.7-.4.2c0-.4 0-.8.2-1.2 0-.4.2-.8.4-1 .2-.4.4-.6.7-.8a2 2 0 0 1 1.6-.1Zm4.1 6.5c.3 0 .6 0 .9-.2l.6-.5c.2-.2.3-.5.3-.7h1.2c0 .4-.2.8-.5 1.2a3 3 0 0 1-2.5 1.2c-.5 0-1 0-1.4-.3-.4-.2-.8-.4-1-.8-.3-.3-.5-.7-.6-1.1a5 5 0 0 1-.2-1.5v-.2c0-.5 0-1 .2-1.4 0-.5.3-.9.6-1.2.2-.4.6-.6 1-.8.4-.2.9-.3 1.4-.3.6 0 1.1 0 1.6.3l1 1c.2.4.4.8.4 1.3h-1.2c0-.3-.1-.5-.3-.8l-.6-.6-.9-.2c-.3 0-.7 0-1 .2l-.6.7-.3.8v2.2l.3.9.7.6 1 .2Zm4.2-2.7v-.2l.3-1.5.6-1.2a3 3 0 0 1 1.1-.7c.4-.2.9-.3 1.4-.3.5 0 1 0 1.4.3.4.1.8.4 1 .7.4.4.6.8.7 1.2l.3 1.5v.2l-.3 1.5-.6 1.2a3 3 0 0 1-2.5 1c-.5 0-1 0-1.4-.2a3.2 3.2 0 0 1-1.7-2l-.3-1.5Zm1.3-.2v.2l.1 1 .4.9.7.6 1 .2c.3 0 .6 0 .8-.2l.7-.6.4-.9.1-1v-.2l-.1-1-.4-.9-.7-.6-.9-.2c-.3 0-.7 0-1 .2a2 2 0 0 0-.6.6l-.4.9v1Zm8.5-2v5.8h-1.3v-7.4h1.2l.1 1.6Zm-.3 1.8h-.5c0-.5 0-1 .2-1.4.1-.4.3-.8.6-1.1a2.8 2.8 0 0 1 2.2-1l1 .1.7.5.5.8.2 1.3v4.8h-1.3v-4.9c0-.3 0-.7-.2-.9a1 1 0 0 0-.5-.5l-.8-.2a1.9 1.9 0 0 0-1.5.8 2.8 2.8 0 0 0-.6 1.7Zm11.3 2.7V194c0-.3 0-.5-.2-.7 0-.3-.3-.4-.5-.5-.2-.2-.5-.2-.9-.2a2 2 0 0 0-.8.1l-.6.5a1 1 0 0 0-.2.6h-1.2c0-.3 0-.6.2-.8.1-.3.3-.5.6-.7a3 3 0 0 1 .9-.5c.4-.2.8-.2 1.2-.2.6 0 1 0 1.4.2.5.2.8.5 1 .9.2.3.4.8.4 1.3v4.3l.2.7v.1h-1.3l-.1-.6-.1-.7Zm.2-3.2v.9h-2.2l-.7.3-.5.5-.1.6c0 .2 0 .4.2.6 0 .2.2.4.4.5l.8.1a2 2 0 0 0 1.7-.8l.3-.7.6.6-.3.6a3 3 0 0 1-1.4 1.2c-.3.2-.7.2-1 .2-.6 0-1 0-1.4-.3-.4-.2-.7-.4-.9-.7a2 2 0 0 1-.3-1.2c0-.4.1-.7.3-1 .1-.3.3-.6.6-.8l1-.4 1.5-.2h1.4Zm7.5-5.5h1.3l3.2 8.2 3.3-8.2h1.3l-4 10h-1l-4.1-10Zm-.4 0h1l.3 6.1v3.9h-1.3v-10Zm8.7 0h1.2v10h-1.3v-3.9l.1-6Zm3.1 6.4v-.2l.3-1.5.6-1.2a3 3 0 0 1 1-.7l1.5-.3c.5 0 1 0 1.4.3.4.1.8.4 1 .7.3.4.6.8.7 1.2l.3 1.5v.2l-.3 1.5-.6 1.2a3 3 0 0 1-2.5 1c-.5 0-1 0-1.4-.2a3.2 3.2 0 0 1-1.7-2l-.3-1.5Zm1.3-.2v.2l.1 1 .4.9.7.6.9.2c.3 0 .6 0 1-.2l.6-.6.4-.9v-2.2l-.4-.9-.7-.6-1-.2c-.3 0-.6 0-.8.2a2 2 0 0 0-.7.6l-.4.9-.1 1Zm8.5-2v5.8H340v-7.4h1.2v1.6Zm-.3 1.8h-.5c0-.5 0-1 .2-1.4.1-.4.3-.8.6-1.1a2.7 2.7 0 0 1 2.2-1l1 .1.7.5.5.8.1 1.3v4.8h-1.2v-4.9c0-.3 0-.7-.2-.9a1 1 0 0 0-.5-.5l-.8-.2a1.9 1.9 0 0 0-1.5.8 2.7 2.7 0 0 0-.6 1.7Zm8.3-3.4v7.4h-1.3v-7.4h1.3Zm-1.4-2c0-.2 0-.3.2-.5l.6-.2c.2 0 .4 0 .5.2.2.2.2.3.2.5s0 .4-.2.5c-.1.2-.3.3-.5.3-.3 0-.5-.1-.6-.3a.7.7 0 0 1-.2-.5Zm6.7 2v1h-4v-1h4Zm-2.6-1.8h1.2v7.4l.1.5.3.3h1v1h-.4a3 3 0 0 1-.5.1 2 2 0 0 1-.9-.1c-.3-.2-.5-.4-.6-.7-.2-.3-.3-.6-.3-1.1v-7.4Zm3.8 5.6v-.2c0-.5 0-1 .2-1.5l.7-1.2a3 3 0 0 1 1-.7l1.4-.3c.6 0 1 0 1.4.3.5.1.8.4 1.1.7l.7 1.2.2 1.5v.2c0 .5 0 1-.2 1.5l-.7 1.2a3 3 0 0 1-2.5 1c-.5 0-1 0-1.4-.2a3.1 3.1 0 0 1-1.7-2l-.2-1.5Zm1.2-.2v.2c0 .4 0 .7.2 1 0 .4.2.6.4.9l.6.6 1 .2c.3 0 .6 0 .9-.2l.6-.6.4-.9.1-1v-.2l-.1-1c0-.3-.2-.6-.4-.9l-.7-.6-.9-.2a1.9 1.9 0 0 0-1.5.8l-.4.9-.2 1Zm8.5-2.4v6.2h-1.2v-7.4h1.2v1.2Zm2.3-1.2v1.1h-.6a2 2 0 0 0-.8.1l-.5.4-.4.6-.2.7-.3.2.1-1.2c.1-.4.2-.8.4-1 .2-.4.5-.6.7-.8a2 2 0 0 1 1.6-.1Zm2.8 0v7.4h-1.3v-7.4h1.3Zm-1.4-2c0-.2 0-.3.2-.5l.5-.2c.3 0 .5 0 .6.2l.2.5c0 .2 0 .4-.2.5-.1.2-.3.3-.6.3a.5.5 0 0 1-.5-.3.7.7 0 0 1-.2-.5Zm4.8 3.6v5.8H373v-7.4h1.2v1.6Zm-.3 1.8h-.5c0-.5 0-1 .2-1.4l.6-1.1a2.8 2.8 0 0 1 2.2-1l1 .1.7.5.5.8.2 1.3v4.8h-1.3v-4.9c0-.3 0-.7-.2-.9a1 1 0 0 0-.5-.5l-.8-.2a1.9 1.9 0 0 0-1.5.8 2.8 2.8 0 0 0-.6 1.7Zm11.8-3.4h1.1v7.2c0 .7-.1 1.3-.4 1.7-.3.5-.6.8-1.1 1a3.5 3.5 0 0 1-2.5.3c-.4 0-.7-.2-1-.4-.4-.2-.6-.4-.9-.8l.7-.7a2.6 2.6 0 0 0 2 1c.4 0 .7 0 1-.2l.7-.7c.2-.3.2-.7.2-1.1v-5.7l.2-1.6Zm-5.1 3.8v-.2c0-.5 0-1 .2-1.5l.5-1.2a2.6 2.6 0 0 1 2.2-1c.4 0 .9 0 1.2.2l.9.7.6 1.1.3 1.5v.6c0 .6-.2 1-.3 1.5l-.6 1-.9.8a3 3 0 0 1-2.4 0l-1-.8-.5-1.2c-.2-.5-.2-1-.2-1.5Zm1.2-.2v.2l.1 1 .4.9.6.6.9.2c.4 0 .7-.1 1-.3l.7-.7c.1-.3.3-.6.3-1v-1.6c0-.3 0-.5-.2-.7 0-.3-.2-.5-.4-.7l-.6-.4a2 2 0 0 0-.8-.2c-.4 0-.7.1-1 .3-.2 0-.4.3-.5.5l-.4.9v1Zm-107 22.5V214c0-.3-.2-.5-.3-.7 0-.3-.3-.4-.5-.5-.2-.2-.5-.2-.9-.2a2 2 0 0 0-.8.1l-.6.5a1 1 0 0 0-.2.6h-1.2c0-.3 0-.6.2-.8.1-.3.3-.5.6-.7a3 3 0 0 1 1-.5c.3-.2.7-.2 1.1-.2.6 0 1 0 1.4.2.5.2.8.5 1 .9.3.3.4.8.4 1.3v4.3l.2.7v.1h-1.3l-.1-.6v-.7Zm.1-3.2v.9h-2.2l-.7.3-.4.5c-.2.1-.2.3-.2.6 0 .2 0 .4.2.6 0 .2.2.4.4.5l.8.1a2 2 0 0 0 1.7-.8l.3-.7.6.6-.3.6a3 3 0 0 1-1.4 1.2c-.3.2-.7.2-1 .2-.6 0-1 0-1.4-.3-.4-.2-.7-.4-.9-.7a2 2 0 0 1-.3-1.2c0-.4.1-.7.3-1 .1-.3.3-.6.6-.8l1-.4 1.5-.2h1.4Zm4.5-1.3v5.8H278v-7.4h1.2l.1 1.6Zm-.3 1.8h-.5c0-.5 0-1 .2-1.4.1-.4.3-.8.6-1.1a2.8 2.8 0 0 1 2.2-1l1 .1.7.5.5.8.1 1.3v4.8h-1.2v-4.9c0-.3 0-.7-.2-.9a1 1 0 0 0-.5-.5l-.8-.2a1.9 1.9 0 0 0-1.5.8 2.7 2.7 0 0 0-.6 1.7Zm11.6 2.6v-9.1h1.3V219h-1.2l-.1-1.4Zm-5-2.2v-.2c0-.5 0-1 .2-1.5l.6-1.2 1-.8 1.2-.2a2.3 2.3 0 0 1 2.1 1l.5 1 .3 1.5v.6c0 .6-.1 1-.3 1.5l-.5 1c-.3.4-.6.6-1 .8a3 3 0 0 1-2.4 0l-.9-.8-.6-1.2-.2-1.5Zm1.3-.2v.2l.1 1c0 .3.2.6.4.9l.6.6.9.2c.4 0 .7-.1 1-.3.3-.2.5-.4.6-.7l.4-1v-1.6l-.2-.7-.4-.7-.6-.4a2 2 0 0 0-.8-.2c-.4 0-.7.1-1 .3-.2 0-.4.3-.5.5l-.4.9-.1 1Zm11.4-6.2h1.2l3.3 8.2 3.3-8.2h1.2l-4 10h-1l-4-10Zm-.5 0h1.2l.2 6.1v3.9h-1.4v-10Zm8.8 0h1.2v10h-1.4v-3.9l.2-6Zm7.8 8.7V214c0-.3 0-.5-.2-.7 0-.3-.3-.4-.5-.5-.2-.2-.5-.2-.8-.2a2 2 0 0 0-.9.1l-.6.5a1 1 0 0 0-.1.6H310c0-.3 0-.6.2-.8.1-.3.3-.5.6-.7a3 3 0 0 1 1-.5c.3-.2.7-.2 1.1-.2.6 0 1 0 1.4.2.5.2.8.5 1 .9.3.3.4.8.4 1.3v4.3l.2.7v.1h-1.3l-.1-.6v-.7Zm.2-3.2v.9h-2.2l-.7.3-.4.5-.2.6c0 .2 0 .4.2.6 0 .2.2.4.4.5l.8.1a2 2 0 0 0 1.7-.8l.3-.7.6.6-.3.6a3 3 0 0 1-1.4 1.2c-.3.2-.7.2-1 .2-.6 0-1 0-1.4-.3-.4-.2-.7-.4-.9-.7a2 2 0 0 1-.3-1.2c0-.4.1-.7.3-1 .1-.3.3-.6.6-.8l1-.4 1.5-.2h1.4Zm4.5-1.3v5.8h-1.3v-7.4h1.2l.1 1.6Zm-.3 1.8h-.5c0-.5 0-1 .2-1.4.1-.4.3-.8.6-1.1a2.8 2.8 0 0 1 2.2-1l1 .1.7.5.5.8.1 1.3v4.8h-1.2v-4.9c0-.3 0-.7-.2-.9a1 1 0 0 0-.5-.5l-.8-.2a1.9 1.9 0 0 0-1.5.8 2.8 2.8 0 0 0-.6 1.7Zm11.3 2.7V214c0-.3 0-.5-.2-.7 0-.3-.3-.4-.5-.5-.2-.2-.5-.2-.9-.2a2 2 0 0 0-.8.1l-.6.5a1 1 0 0 0-.2.6h-1.2c0-.3 0-.6.2-.8.1-.3.3-.5.6-.7a3 3 0 0 1 .9-.5c.4-.2.8-.2 1.2-.2.6 0 1 0 1.4.2.5.2.8.5 1 .9.2.3.4.8.4 1.3v4.3l.2.7v.1h-1.3l-.1-.6-.1-.7Zm.2-3.2v.9h-2.2l-.7.3-.5.5-.1.6c0 .2 0 .4.2.6 0 .2.2.4.4.5l.8.1a2 2 0 0 0 1.7-.8l.3-.7.6.6-.3.6a3 3 0 0 1-1.4 1.2c-.3.2-.7.2-1 .2-.6 0-1 0-1.4-.3-.4-.2-.7-.4-.9-.7a2 2 0 0 1-.3-1.2c0-.4.1-.7.3-1 .1-.3.3-.6.6-.8l1-.4 1.5-.2h1.4Zm8-2.9h1.2v7.2c0 .7-.2 1.3-.4 1.7-.3.5-.7.8-1.1 1a3.5 3.5 0 0 1-2.6.3c-.3 0-.6-.2-1-.4-.3-.2-.6-.4-.8-.8l.7-.7a2.6 2.6 0 0 0 2 1c.3 0 .7 0 1-.2l.7-.7.2-1.1v-5.7l.1-1.6Zm-5 3.8v-.2l.1-1.5.6-1.2a2.6 2.6 0 0 1 2.1-1c.5 0 1 0 1.3.2l.9.7.5 1.1.3 1.5v.6c0 .6-.1 1-.3 1.5-.1.4-.3.8-.6 1-.2.4-.5.6-.8.8a3 3 0 0 1-2.5 0l-.9-.8-.6-1.2-.2-1.5Zm1.2-.2v.2l.1 1 .3.9.7.6.8.2c.5 0 .8-.1 1-.3.4-.2.6-.4.7-.7l.4-1v-1.6l-.2-.7-.4-.7-.6-.4a2 2 0 0 0-.8-.2c-.4 0-.7.1-1 .3-.2 0-.4.3-.6.5l-.3.9-.1 1Zm10.1 4c-.5 0-1-.1-1.4-.3a3.2 3.2 0 0 1-1.7-1.9c-.2-.4-.3-1-.3-1.4v-.3c0-.6.1-1.2.3-1.6.2-.5.4-1 .7-1.2a3.1 3.1 0 0 1 3.6-.8l1 .8.5 1.2.2 1.4v.6H342v-1h4.2v-.2c0-.3 0-.6-.2-1 0-.2-.3-.5-.5-.7-.3-.2-.6-.3-1-.3a1.7 1.7 0 0 0-1.5.7l-.4.9-.1 1.2v.3l.1 1 .5.8.7.5.9.2c.4 0 .8 0 1.1-.3l.8-.7.8.6c-.1.3-.4.5-.6.7-.2.2-.5.4-1 .5-.3.2-.7.2-1.2.2Zm5.8-6.1v5.9h-1.3v-7.4h1.2l.1 1.5Zm-.3 2-.5-.1c0-.5 0-1 .2-1.4 0-.4.3-.8.5-1.1l1-.8a3 3 0 0 1 1.3-.2l1 .1a2 2 0 0 1 1.2 1.3l.2 1.2v4.9h-1.3v-4.9c0-.4 0-.7-.2-.9a1 1 0 0 0-.6-.5 2 2 0 0 0-.8-.2 2 2 0 0 0-1 .2c-.2.2-.4.3-.5.6l-.4.8v1Zm4.8-.8-.8.3c0-.4 0-.8.2-1.2.1-.4.3-.7.6-1 .2-.3.5-.5.9-.7l1.2-.2 1 .1a2 2 0 0 1 1.4 1.3l.1 1.2v4.9h-1.3v-4.9c0-.4 0-.7-.2-1a1 1 0 0 0-.5-.4 2.2 2.2 0 0 0-1.6 0c-.2 0-.4.2-.5.4-.2.1-.3.3-.3.5l-.2.7Zm9.8 4.8c-.5 0-1 0-1.4-.2a3.2 3.2 0 0 1-1.8-1.9l-.2-1.4v-.3c0-.6 0-1.2.2-1.6.2-.5.5-1 .8-1.2a3.1 3.1 0 0 1 3.6-.8l1 .8.5 1.2.1 1.4v.6H362v-1h4.3v-.2l-.2-1-.6-.7c-.2-.2-.6-.3-1-.3a1.7 1.7 0 0 0-1.4.7l-.4.9-.2 1.2v.3c0 .3 0 .6.2 1 0 .3.2.5.4.8a2 2 0 0 0 1.6.7c.5 0 .9 0 1.2-.3l.8-.7.8.6-.7.7a2 2 0 0 1-.9.5c-.3.2-.7.2-1.2.2Zm5.8-6v5.9h-1.3v-7.4h1.2v1.6Zm-.3 2-.6-.1c0-.5.1-1 .3-1.4.1-.4.3-.8.6-1.1a2.8 2.8 0 0 1 2.1-1l1 .1.8.5.4.8c.2.4.2.8.2 1.3v4.8h-1.3v-4.9l-.1-.9a1 1 0 0 0-.5-.5l-.8-.2a1.9 1.9 0 0 0-1.6.8 2.7 2.7 0 0 0-.5 1.7Zm10-3.5v1h-4v-1h4Zm-2.6-1.8h1.2v7.4l.1.5.3.3h.4a2 2 0 0 0 .6 0v1h-.4a3 3 0 0 1-.5.1 2 2 0 0 1-.9-.1c-.3-.2-.5-.4-.6-.7-.2-.3-.2-.6-.2-1.1v-7.4ZM114.5 220v9.9h-1.3v-10h1.3Zm4.1 4.4v1h-4.4v-1h4.4Zm.7-4.5v1.1h-5.1v-1h5.1Zm1 6.4v-.2l.3-1.5.7-1.2a3 3 0 0 1 1-.8c.5-.2 1-.2 1.4-.2.6 0 1 0 1.4.2.5.2.8.5 1.1.8l.7 1.2.2 1.5v.2c0 .5 0 1-.2 1.5l-.7 1.2a3.1 3.1 0 0 1-2.4 1c-.6 0-1 0-1.4-.3a3.2 3.2 0 0 1-1.8-2l-.2-1.4Zm1.4-.2v1.2l.5.9.6.6 1 .2c.3 0 .6 0 .9-.2l.6-.6.4-.9.1-1V225l-.5-.9-.6-.6-1-.2c-.3 0-.6 0-.9.2a2 2 0 0 0-.6.6l-.4.9-.1 1Zm8.4-2.4v6.2H129v-7.4h1.2v1.2Zm2.4-1.3v1.2a3.3 3.3 0 0 0-.6 0 2 2 0 0 0-.8.1c-.3.1-.5.2-.6.4l-.4.6-.2.7-.3.2.1-1.2.4-1c.2-.4.5-.6.8-.8a2 2 0 0 1 1.6-.2Zm5.8 5.8v-5.7h1.3v7.4h-1.2v-1.7Zm.3-1.6h.5c0 .5 0 1-.2 1.4a3 3 0 0 1-.5 1c-.2.4-.5.6-.9.8l-1.3.2a3 3 0 0 1-1-.1 2 2 0 0 1-1.3-1.4l-.1-1.2v-4.8h1.2v4.8l.1.8.3.5.5.3h.5c.5 0 1 0 1.3-.3.3-.2.5-.4.6-.8.2-.4.3-.7.3-1.2Zm4.3-2.6v5.9h-1.2v-7.4h1.2v1.5Zm-.2 2-.6-.1c0-.5 0-1 .2-1.4.1-.4.3-.8.6-1.1.2-.4.5-.6.9-.8a3 3 0 0 1 1.3-.2l1 .1a2 2 0 0 1 1.2 1.3l.2 1.2v4.9h-1.3V225c0-.4 0-.7-.2-1l-.5-.4a2 2 0 0 0-.9-.2 2 2 0 0 0-.9.2l-.6.6c-.1.2-.3.5-.3.8l-.1 1Zm4.8-.8-.9.3.2-1.2c.2-.4.3-.7.6-1 .2-.3.6-.5 1-.7.3-.2.7-.2 1.2-.2l1 .1a2 2 0 0 1 1.3 1.3l.1 1.2v4.9h-1.2V225c0-.4 0-.7-.2-1a1 1 0 0 0-.6-.4 2.2 2.2 0 0 0-1.5 0c-.3 0-.4.2-.6.4l-.3.5-.1.7Z"/>
  <g filter="url(#filter3_d_29_3917)">
    <rect width="120" height="41" x="251" y="2" fill="#fff" rx="4"/>
    <rect width="119" height="40" x="251.5" y="2.5" stroke="#F5F5F5" rx="3.5"/>
  </g>
  <path fill="#000" d="M300.7 23.3h-2.5v-1h2.3c.3 0 .7 0 1-.2l.6-.6c.2-.2.2-.5.2-.8 0-.4 0-.7-.2-.9a1 1 0 0 0-.6-.5 3 3 0 0 0-1-.2h-2V28h-1.3V18h3.2l1.4.2 1 .5c.3.2.5.5.6.8.2.3.3.7.3 1.2 0 .4-.1.8-.4 1.1l-.8.8c-.4.2-.8.4-1.3.4l-.5.3Zm0 4.7h-3l.7-1h2.2c.5 0 .8-.1 1.1-.3.3-.1.5-.3.7-.6l.2-1c0-.3 0-.6-.2-1a1 1 0 0 0-.6-.5 2 2 0 0 0-1.1-.3h-1.9v-1h2.6l.3.4c.5 0 .9.1 1.2.4.3.2.6.5.8.9l.2 1.1a2.7 2.7 0 0 1-1.5 2.6c-.5.2-1 .3-1.8.3Zm6.5-10.5V28H306V17.5h1.2Zm1.9 6.9v-.2c0-.5 0-1 .2-1.5l.7-1.2a3 3 0 0 1 1-.7l1.5-.3c.5 0 1 0 1.4.3.4.1.7.4 1 .7l.7 1.2c.2.5.2 1 .2 1.5v.2c0 .5 0 1-.2 1.5l-.7 1.2a3.1 3.1 0 0 1-2.4 1c-.6 0-1 0-1.4-.2a3.2 3.2 0 0 1-1.8-2l-.2-1.5Zm1.3-.2v1.2l.5.9.6.6 1 .2c.3 0 .6 0 .9-.2l.6-.6.4-.9.2-1v-.2c0-.3 0-.7-.2-1 0-.3-.2-.6-.4-.9l-.6-.6-1-.2c-.3 0-.6 0-.9.2a2 2 0 0 0-.6.6l-.4.9-.1 1Zm12-3.6h1.1v7.2c0 .7-.1 1.3-.4 1.7a2 2 0 0 1-1 1 3.5 3.5 0 0 1-2.6.3c-.3 0-.7-.2-1-.4-.3-.2-.6-.4-.8-.8l.6-.7a2.6 2.6 0 0 0 2 1l1-.2c.3-.2.6-.4.7-.7.2-.3.3-.7.3-1.1v-7.3Zm-5.1 3.8v-.2c0-.5 0-1 .2-1.5.1-.5.3-.9.6-1.2a2.6 2.6 0 0 1 2.1-1c.5 0 .9 0 1.2.2l1 .7.5 1.1.3 1.5v.6c0 .6-.2 1-.3 1.5-.2.4-.3.8-.6 1-.2.4-.5.6-.9.8a3 3 0 0 1-2.4 0l-1-.8-.5-1.2-.2-1.5Zm1.2-.2v.2c0 .4 0 .7.2 1l.3.9.6.6.9.2c.4 0 .8-.1 1-.3l.7-.7.4-1v-1.6c0-.3-.2-.5-.3-.7 0-.3-.2-.5-.4-.7l-.6-.4a2 2 0 0 0-.8-.2l-.9.3c-.2 0-.4.3-.6.5l-.3.9-.2 1Z"/>
  <defs>
    <filter id="filter0_d_29_3917" width="101" height="49" x="81" y="202.9" color-interpolation-filters="sRGB" filterUnits="userSpaceOnUse">
      <feFlood flood-opacity="0" result="BackgroundImageFix"/>
      <feColorMatrix in="SourceAlpha" result="hardAlpha" values="0 0 0 0 0 0 0 0 0 0 0 0 0 0 0 0 0 0 127 0"/>
      <feOffset dy="3"/>
      <feGaussianBlur stdDeviation="2"/>
      <feComposite in2="hardAlpha" operator="out"/>
      <feColorMatrix values="0 0 0 0 0.233333 0 0 0 0 0.233333 0 0 0 0 0.233333 0 0 0 0.25 0"/>
      <feBlend in2="BackgroundImageFix" result="effect1_dropShadow_29_3917"/>
      <feBlend in="SourceGraphic" in2="effect1_dropShadow_29_3917" result="shape"/>
    </filter>
    <filter id="filter1_d_29_3917" width="184" height="49" x="0" y="23" color-interpolation-filters="sRGB" filterUnits="userSpaceOnUse">
      <feFlood flood-opacity="0" result="BackgroundImageFix"/>
      <feColorMatrix in="SourceAlpha" result="hardAlpha" values="0 0 0 0 0 0 0 0 0 0 0 0 0 0 0 0 0 0 127 0"/>
      <feOffset dy="3"/>
      <feGaussianBlur stdDeviation="2"/>
      <feComposite in2="hardAlpha" operator="out"/>
      <feColorMatrix values="0 0 0 0 0.233333 0 0 0 0 0.233333 0 0 0 0 0.233333 0 0 0 0.25 0"/>
      <feBlend in2="BackgroundImageFix" result="effect1_dropShadow_29_3917"/>
      <feBlend in="SourceGraphic" in2="effect1_dropShadow_29_3917" result="shape"/>
    </filter>
    <filter id="filter2_d_29_3917" width="193" height="71" x="228" y="171" color-interpolation-filters="sRGB" filterUnits="userSpaceOnUse">
      <feFlood flood-opacity="0" result="BackgroundImageFix"/>
      <feColorMatrix in="SourceAlpha" result="hardAlpha" values="0 0 0 0 0 0 0 0 0 0 0 0 0 0 0 0 0 0 127 0"/>
      <feOffset dy="3"/>
      <feGaussianBlur stdDeviation="2"/>
      <feComposite in2="hardAlpha" operator="out"/>
      <feColorMatrix values="0 0 0 0 0.233333 0 0 0 0 0.233333 0 0 0 0 0.233333 0 0 0 0.25 0"/>
      <feBlend in2="BackgroundImageFix" result="effect1_dropShadow_29_3917"/>
      <feBlend in="SourceGraphic" in2="effect1_dropShadow_29_3917" result="shape"/>
    </filter>
    <filter id="filter3_d_29_3917" width="128" height="49" x="247" y="1" color-interpolation-filters="sRGB" filterUnits="userSpaceOnUse">
      <feFlood flood-opacity="0" result="BackgroundImageFix"/>
      <feColorMatrix in="SourceAlpha" result="hardAlpha" values="0 0 0 0 0 0 0 0 0 0 0 0 0 0 0 0 0 0 127 0"/>
      <feOffset dy="3"/>
      <feGaussianBlur stdDeviation="2"/>
      <feComposite in2="hardAlpha" operator="out"/>
      <feColorMatrix values="0 0 0 0 0.233333 0 0 0 0 0.233333 0 0 0 0 0.233333 0 0 0 0.25 0"/>
      <feBlend in2="BackgroundImageFix" result="effect1_dropShadow_29_3917"/>
      <feBlend in="SourceGraphic" in2="effect1_dropShadow_29_3917" result="shape"/>
    </filter>
  </defs>
</svg>
