<svg xmlns="http://www.w3.org/2000/svg" fill="none" viewBox="0 0 157 28">
  <g fill="#fff" clip-path="url(#a)">
    <path d="M38.55 20.74V7.25h5.65c3.07 0 5.06 1.8 5.06 4.6 0 2.74-2.09 4.65-5.06 4.65h-2.64v4.24h-3.01Zm5.48-6.77c1.41 0 2.22-.77 2.22-2.13 0-1.32-.79-2.05-2.22-2.05h-2.47v4.18h2.47Zm11.74 6.77V7.25h9.56V9.8h-6.56v2.83h6v2.57h-6v2.99h6.58v2.55h-9.58Zm24.18 0-2.4-4.2h-2.46v4.2h-3V7.25h6.1c3 0 4.93 1.82 4.93 4.65 0 1.84-.93 3.37-2.5 4.13l2.8 4.7h-3.47Zm-2.07-6.7c1.4 0 2.25-.8 2.25-2.17 0-1.34-.82-2.11-2.25-2.11h-2.8v4.29h2.8ZM113.82 21c-3.66 0-6.04-2.38-6.04-6.04v-1.92c0-3.67 2.37-6.04 6.04-6.04 3.73 0 6.05 2.31 6.05 6.04v1.92c0 3.73-2.32 6.04-6.05 6.04Zm0-11.45c-1.93 0-3.03 1.22-3.03 3.36v2.18c0 2.14 1.1 3.36 3.03 3.36 1.93 0 3.04-1.22 3.04-3.36V12.9c0-2.14-1.1-3.36-3.04-3.36Zm21.24 11.19-5.43-8.28v8.28h-2.94V7.25h2.78l5.43 8.28V7.25h2.94v13.49h-2.78Zm18.94 0-.89-2.75h-4.81l-.89 2.75h-3.01l4.84-13.49h2.92L157 20.74h-3Zm-1.69-5.2-1.62-5.11-1.63 5.1h3.25Zm-53.67.45c-.22 1.55-1.28 2.48-2.84 2.48-2.56 0-2.95-2.13-2.95-3.4v-2.14c0-1.27.39-3.4 2.95-3.4 1.56 0 2.6.92 2.84 2.47l2.8-.41C101.05 8.86 98.8 7 95.8 7c-3.72 0-5.92 2.26-5.92 6.06v1.88c0 3.8 2.21 6.06 5.92 6.06 3.01 0 5.26-1.87 5.63-4.6l-2.8-.41Z"/>
  </g>
  <g clip-path="url(#b)">
    <path fill="#fff" d="M14.02 27.99A14 14 0 1 0 0 13.99a14 14 0 0 0 14.02 14Z"/>
    <path fill="#BF181A" d="M14.02.01a14 14 0 0 0-7.99 25.5V14a7.98 7.98 0 1 1 3.24 6.39v6.77A14 14 0 1 0 14.02.01Z"/>
    <path fill="#EFC700" d="M14.02 18.67a4.67 4.67 0 1 0 0-9.34 4.67 4.67 0 0 0 0 9.34Z"/>
    <path fill="#E6B600" d="M14.02 9.8c2.5 0 4.54 1.96 4.66 4.43V14a4.67 4.67 0 0 0-9.33 0l.01.23a4.66 4.66 0 0 1 4.66-4.43Z"/>
  </g>
  <defs>
    <clipPath id="a">
      <path fill="#fff" d="M38.55 7H157v14H38.55z"/>
    </clipPath>
    <clipPath id="b">
      <path fill="#fff" d="M0 0h28.04v28H0z"/>
    </clipPath>
  </defs>
</svg>
